<?xml version="1.0" standalone="no"?>
<!DOCTYPE svg PUBLIC "-//W3C//DTD SVG 20010904//EN"
 "http://www.w3.org/TR/2001/REC-SVG-20010904/DTD/svg10.dtd">
<svg version="1.0" xmlns="http://www.w3.org/2000/svg"
 width="1305.000000pt" height="631.000000pt" viewBox="0 0 1305.000000 631.000000"
 preserveAspectRatio="xMidYMid meet">

<g transform="translate(0.000000,631.000000) scale(0.100000,-0.100000)"
fill="#000000" stroke="none">
<path d="M4843 6129 c14 -8 17 -25 17 -94 0 -69 -3 -86 -17 -94 -27 -16 116
-14 147 2 33 17 35 66 3 82 -21 11 -21 11 -2 23 10 7 19 23 19 37 0 38 -35 55
-115 55 -52 -1 -66 -3 -52 -11z m105 -11 c25 -25 8 -78 -25 -78 -9 0 -13 15
-13 45 0 46 13 58 38 33z m10 -100 c29 -29 3 -84 -35 -76 -20 4 -28 28 -19 64
7 26 34 32 54 12z"/>
<path d="M5738 6133 c7 -2 12 -22 12 -45 0 -35 -2 -39 -15 -28 -38 32 -95 -28
-81 -85 8 -33 50 -54 76 -37 14 8 20 8 22 0 3 -8 12 -8 34 0 16 6 23 11 17 11
-10 1 -13 27 -13 96 l0 95 -32 -1 c-18 0 -27 -3 -20 -6z m1 -87 c7 -8 11 -32
9 -53 -2 -30 -7 -38 -22 -38 -26 0 -42 48 -27 81 12 27 23 30 40 10z"/>
<path d="M6287 6132 c8 -5 12 -35 10 -92 -2 -78 -4 -85 -22 -85 -17 0 -21 8
-23 45 -3 33 1 47 14 57 17 12 17 13 -3 13 -28 0 -56 -35 -56 -70 0 -50 58
-93 79 -59 5 8 9 8 14 -1 4 -6 17 -9 31 -5 24 6 24 7 21 105 l-3 100 -37 0
c-21 0 -32 -4 -25 -8z"/>
<path d="M7243 6124 c-8 -21 13 -42 28 -27 13 13 5 43 -11 43 -6 0 -13 -7 -17
-16z"/>
<path d="M5058 6013 c2 -32 8 -63 13 -69 5 -6 35 -12 67 -12 l57 -1 -3 70 c-4
67 -4 69 -30 69 -26 0 -27 -2 -23 -51 2 -30 -2 -56 -8 -62 -18 -18 -31 10 -31
66 0 42 -2 47 -22 47 -22 0 -23 -3 -20 -57z"/>
<path d="M5242 6058 c-20 -20 -13 -46 18 -70 30 -22 40 -48 18 -48 -6 0 -20 7
-30 17 -16 14 -18 14 -18 0 0 -9 12 -18 31 -22 24 -6 36 -2 51 13 24 23 14 50
-26 72 -28 14 -35 40 -12 40 8 0 22 -10 30 -22 l16 -22 0 24 c0 21 -5 25 -33
27 -18 2 -39 -3 -45 -9z"/>
<path d="M5372 6047 c-58 -61 16 -152 83 -103 18 13 18 14 -6 9 -32 -6 -59 26
-59 69 0 37 19 46 41 17 15 -20 20 -22 31 -11 11 11 10 16 -6 28 -29 21 -59
17 -84 -9z"/>
<path d="M5553 6059 c13 -8 17 -23 17 -65 0 -59 13 -75 47 -55 10 6 12 11 6
11 -9 0 -13 16 -13 48 0 54 -12 72 -49 72 -23 -1 -24 -2 -8 -11z"/>
<path d="M5852 6050 c-44 -41 -15 -120 43 -120 31 0 75 41 75 70 0 28 -43 70
-73 70 -13 0 -33 -9 -45 -20z m66 -48 c2 -41 0 -54 -13 -59 -21 -8 -35 13 -35
54 0 44 10 65 29 61 12 -2 17 -17 19 -56z"/>
<path d="M6005 6000 l0 -70 35 0 c26 0 31 3 22 12 -15 15 -16 63 -1 90 11 20
12 21 25 4 14 -20 34 -14 34 10 0 21 -27 29 -47 13 -13 -11 -17 -11 -20 -1 -3
6 -14 12 -26 12 -20 0 -22 -5 -22 -70z"/>
<path d="M6409 6052 c-62 -51 10 -157 75 -109 16 12 15 13 -9 12 -17 0 -33 8
-42 23 -15 22 -15 22 31 22 50 0 51 1 35 33 -22 42 -53 48 -90 19z m59 -20 c3
-18 -2 -22 -22 -22 -29 0 -31 3 -15 31 13 25 33 20 37 -9z"/>
<path d="M6629 6052 c-64 -52 10 -156 76 -108 19 13 18 14 -6 9 -34 -6 -51 17
-47 63 3 41 22 56 31 24 6 -22 37 -28 37 -7 0 38 -53 49 -91 19z"/>
<path d="M6778 6059 c-10 -5 -18 -19 -18 -30 0 -14 5 -19 18 -17 11 2 16 11
14 26 -2 15 2 22 12 22 13 0 16 -12 16 -52 0 -29 4 -59 9 -66 9 -14 46 -13 43
1 -1 4 -2 27 -2 51 0 66 -41 95 -92 65z"/>
<path d="M6915 5999 l0 -69 30 0 c30 0 30 0 30 57 0 38 4 58 13 61 11 3 13 -9
10 -57 l-3 -61 31 0 30 0 -7 59 c-3 32 -9 63 -13 69 -3 5 -31 10 -63 10 l-58
1 0 -70z"/>
<path d="M7109 6052 c-64 -52 10 -156 76 -108 19 13 18 14 -6 9 -34 -6 -51 17
-47 63 3 41 22 56 31 24 6 -22 37 -28 37 -7 0 38 -53 49 -91 19z"/>
<path d="M7228 6063 c7 -3 12 -26 12 -63 0 -37 -5 -60 -12 -63 -7 -3 7 -6 32
-6 34 -1 41 2 32 11 -7 7 -12 38 -12 70 l0 58 -32 -1 c-18 0 -27 -3 -20 -6z"/>
<path d="M7340 6050 c-28 -28 -27 -84 2 -104 51 -36 108 -7 108 54 0 29 -6 43
-22 54 -31 22 -64 20 -88 -4z m65 -50 c0 -48 -2 -55 -20 -55 -16 0 -21 8 -23
44 -4 54 3 73 25 69 15 -3 18 -14 18 -58z"/>
<path d="M7485 5999 l0 -69 30 0 c30 0 30 0 30 57 0 38 4 58 13 61 11 3 13 -9
10 -57 l-3 -61 31 0 30 0 -7 59 c-3 32 -9 63 -13 69 -3 5 -31 10 -63 10 l-58
1 0 -70z"/>
<path d="M7679 6052 c-62 -51 10 -157 75 -109 16 12 15 13 -9 12 -17 0 -33 8
-42 23 -15 22 -15 22 31 22 50 0 51 1 35 33 -22 42 -53 48 -90 19z m59 -20 c3
-18 -2 -22 -22 -22 -29 0 -31 3 -15 31 13 25 33 20 37 -9z"/>
<path d="M7812 6058 c-21 -21 -13 -42 25 -75 33 -27 36 -32 20 -38 -11 -5 -25
-1 -37 10 -19 17 -20 17 -20 -1 0 -25 62 -31 85 -8 22 23 15 45 -22 69 -34 21
-43 45 -19 45 8 0 22 -10 30 -22 l16 -22 0 24 c0 21 -5 25 -33 27 -18 2 -39
-3 -45 -9z"/>
<path d="M5506 6043 c-8 -21 10 -41 24 -27 11 11 3 44 -10 44 -4 0 -11 -8 -14
-17z"/>
<path d="M5523 5993 c-42 -29 -19 -79 24 -54 10 6 12 11 6 11 -16 0 -17 32 -1
48 17 17 -3 14 -29 -5z"/>
<path d="M6776 5989 c-14 -11 -26 -27 -26 -35 0 -18 24 -28 46 -20 13 5 14 9
4 20 -8 11 -9 20 0 35 14 26 9 26 -24 0z"/>
<path d="M5950 5472 c-31 -26 -72 -61 -93 -78 -26 -22 -36 -36 -31 -48 5 -13
9 -14 20 -5 12 10 14 -6 14 -96 0 -96 2 -106 18 -103 15 3 18 19 22 124 l5
120 35 30 c73 61 64 60 122 14 l53 -42 5 -121 c4 -106 7 -122 23 -125 15 -3
17 7 17 103 0 90 2 106 14 96 18 -16 32 18 14 34 -35 31 -176 145 -179 144 -2
0 -29 -21 -59 -47z"/>
<path d="M6594 5490 c-34 -13 -64 -59 -64 -97 0 -66 57 -141 159 -209 40 -26
41 -26 68 -9 153 98 213 216 145 285 -41 40 -92 48 -136 21 l-35 -22 -38 21
c-40 21 -65 24 -99 10z m105 -62 l31 -32 30 32 c53 58 130 36 130 -38 0 -48
-31 -93 -102 -148 l-57 -44 -52 38 c-70 51 -109 107 -109 155 0 72 74 93 129
37z"/>
<path d="M5942 5223 c2 -61 6 -78 18 -78 11 0 16 14 18 58 3 56 4 57 32 57 28
0 29 -1 32 -57 2 -44 7 -58 18 -58 12 0 16 17 18 78 l3 77 -71 0 -71 0 3 -77z"/>
<path d="M202 4558 l1 -63 6 50 6 49 32 -49 c19 -29 33 -43 33 -32 0 9 -4 17
-8 17 -5 0 -18 18 -31 40 -34 60 -41 58 -39 -12z"/>
<path d="M993 4560 c0 -36 2 -50 4 -32 2 17 2 47 0 65 -2 17 -4 3 -4 -33z"/>
<path d="M320 4576 c-15 -19 -9 -56 12 -69 34 -22 66 41 36 71 -16 16 -33 15
-48 -2z m45 -31 c0 -23 -4 -30 -20 -30 -21 0 -31 25 -21 51 11 28 41 12 41
-21z"/>
<path d="M401 4541 l2 -46 6 40 c4 27 12 41 24 43 14 3 17 -4 18 -40 l2 -43 6
40 c4 26 12 41 23 43 13 3 18 -6 21 -40 l4 -43 -1 45 -1 45 -52 1 -53 1 1 -46z"/>
<path d="M635 4580 c-3 -6 1 -7 9 -4 18 7 21 14 7 14 -6 0 -13 -4 -16 -10z"/>
<path d="M685 4579 c-4 -6 -4 -13 -1 -16 3 -4 6 -1 6 5 0 6 8 13 18 15 15 4
15 5 0 6 -9 0 -20 -4 -23 -10z"/>
<path d="M910 4576 c-25 -31 13 -97 40 -70 8 8 4 10 -11 10 -12 -1 -24 5 -26
12 -3 8 6 12 26 12 17 0 31 4 31 8 0 5 -14 6 -31 4 -24 -4 -30 -1 -27 9 3 8
14 14 26 13 12 0 19 3 16 8 -8 13 -30 9 -44 -6z"/>
<path d="M1073 4545 c0 -27 2 -38 4 -22 2 15 2 37 0 50 -2 12 -4 0 -4 -28z"/>
<path d="M1130 4586 c0 -2 7 -7 16 -10 8 -3 12 -2 9 4 -6 10 -25 14 -25 6z"/>
<path d="M1198 4583 c7 -3 16 -2 19 1 4 3 -2 6 -13 5 -11 0 -14 -3 -6 -6z"/>
<path d="M1245 4579 c-4 -6 -4 -13 -1 -16 3 -4 6 -1 6 5 0 6 8 13 18 15 15 4
15 5 0 6 -9 0 -20 -4 -23 -10z"/>
<path d="M1381 4525 c1 -33 4 -50 6 -39 3 15 10 20 22 17 10 -3 21 -1 24 4 3
5 -4 9 -16 9 -18 -1 -22 5 -22 29 0 24 4 30 22 29 12 0 20 3 17 8 -3 4 -16 7
-29 6 -24 -2 -25 -5 -24 -63z"/>
<path d="M1530 4576 c-15 -20 -9 -56 12 -70 14 -8 21 -6 35 9 16 17 17 18 1 6
-19 -14 -48 -9 -48 9 0 5 14 10 30 10 31 0 39 17 18 38 -16 16 -33 15 -48 -2z
m48 -13 c2 -8 -6 -13 -22 -13 -25 0 -33 10 -19 24 10 10 36 3 41 -11z"/>
<path d="M1608 4583 c6 -2 18 -2 25 0 6 3 1 5 -13 5 -14 0 -19 -2 -12 -5z"/>
<path d="M1666 4581 c-4 -5 3 -7 14 -4 23 6 26 13 6 13 -8 0 -17 -4 -20 -9z"/>
<path d="M1473 4540 c0 -25 2 -35 4 -22 2 12 2 32 0 45 -2 12 -4 2 -4 -23z"/>
<path d="M1441 4544 c0 -11 3 -14 6 -6 3 7 2 16 -1 19 -3 4 -6 -2 -5 -13z"/>
<path d="M1650 4545 c0 -7 14 -9 35 -7 19 2 35 5 35 7 0 2 -16 5 -35 7 -21 2
-35 0 -35 -7z"/>
<path d="M8720 4490 c0 -56 3 -70 15 -70 11 0 15 13 16 53 l1 52 12 -49 c7
-27 17 -51 23 -53 6 -2 17 18 24 44 l13 48 4 -47 c2 -34 7 -48 18 -48 11 0 14
16 14 71 0 67 -1 70 -22 67 -14 -2 -25 -14 -31 -33 -5 -16 -11 -37 -14 -45 -3
-9 -11 5 -19 33 -11 35 -19 47 -34 47 -18 0 -20 -7 -20 -70z"/>
<path d="M8880 4550 c0 -5 5 -10 10 -10 6 0 10 5 10 10 0 6 -4 10 -10 10 -5 0
-10 -4 -10 -10z"/>
<path d="M9510 4550 c0 -5 7 -10 15 -10 8 0 15 5 15 10 0 6 -7 10 -15 10 -8 0
-15 -4 -15 -10z"/>
<path d="M10056 4538 c-13 -14 -15 -23 -8 -26 7 -2 12 -23 12 -48 0 -24 5 -44
10 -44 6 0 10 20 10 44 0 26 5 47 13 50 9 5 9 7 -1 12 -10 5 -9 9 5 20 17 13
17 13 -2 14 -11 0 -29 -10 -39 -22z"/>
<path d="M10510 4550 c0 -5 5 -10 10 -10 6 0 10 5 10 10 0 6 -4 10 -10 10 -5
0 -10 -4 -10 -10z"/>
<path d="M693 4543 c9 -2 25 -2 35 0 9 3 1 5 -18 5 -19 0 -27 -2 -17 -5z"/>
<path d="M1253 4543 c9 -2 25 -2 35 0 9 3 1 5 -18 5 -19 0 -27 -2 -17 -5z"/>
<path d="M10560 4533 c-10 -12 -11 -18 -2 -21 7 -2 12 -21 12 -43 0 -38 21
-62 38 -44 4 4 1 10 -5 12 -17 6 -17 70 -1 75 9 3 8 9 -4 21 -20 20 -19 20
-38 0z"/>
<path d="M8880 4475 c0 -30 5 -55 10 -55 6 0 10 25 10 55 0 30 -4 55 -10 55
-5 0 -10 -25 -10 -55z"/>
<path d="M8937 4523 c-17 -17 -5 -45 23 -56 42 -16 37 -31 -7 -22 -33 6 -35 5
-24 -9 29 -35 98 -5 74 32 -5 10 -20 18 -32 20 -11 2 -21 8 -21 13 0 7 13 8
32 3 29 -6 31 -5 19 10 -13 16 -52 22 -64 9z"/>
<path d="M9096 4514 c-32 -31 -10 -94 33 -94 23 0 46 26 32 34 -5 4 -12 2 -16
-4 -15 -24 -35 -9 -35 25 0 24 5 35 15 35 8 0 15 -4 15 -10 0 -5 7 -7 15 -4
12 5 13 10 4 20 -15 19 -44 18 -63 -2z"/>
<path d="M9197 4523 c-15 -14 -6 -23 18 -17 33 8 32 -4 0 -16 -54 -21 -39 -69
20 -67 34 1 35 2 35 42 0 23 -5 46 -12 53 -13 13 -50 16 -61 5z m43 -63 c0
-11 -7 -20 -15 -20 -27 0 -18 30 13 39 1 1 2 -8 2 -19z"/>
<path d="M9300 4474 c0 -64 17 -73 22 -11 2 29 8 42 18 42 10 0 16 -13 18 -42
2 -24 8 -43 13 -43 6 0 9 22 7 53 l-3 52 -37 2 -38 1 0 -54z"/>
<path d="M9422 4518 c-7 -7 -12 -26 -12 -43 0 -34 15 -55 40 -55 24 0 43 17
35 29 -5 9 -10 9 -20 1 -19 -16 -35 -4 -35 25 0 29 16 41 34 26 17 -14 29 -2
15 16 -14 16 -41 17 -57 1z"/>
<path d="M9510 4475 c0 -42 3 -55 15 -55 12 0 15 13 15 55 0 42 -3 55 -15 55
-12 0 -15 -13 -15 -55z"/>
<path d="M9573 4504 c-15 -24 -15 -29 -2 -53 18 -32 45 -38 70 -15 24 22 24
56 1 77 -26 24 -49 21 -69 -9z m59 -11 c7 -30 -4 -54 -21 -51 -29 6 -27 68 3
68 8 0 16 -8 18 -17z"/>
<path d="M9680 4474 c0 -64 17 -73 22 -12 2 31 8 44 21 46 14 3 17 -4 17 -42
0 -34 4 -46 15 -46 11 0 15 11 15 38 0 51 -13 67 -55 68 l-35 1 0 -53z"/>
<path d="M9802 4518 c-17 -17 -15 -73 3 -88 16 -13 65 -6 65 10 0 5 -12 8 -26
7 -15 -1 -29 3 -31 10 -3 7 9 13 31 15 34 3 35 4 23 28 -14 28 -46 37 -65 18z
m48 -18 c0 -5 -9 -10 -21 -10 -11 0 -17 5 -14 10 3 6 13 10 21 10 8 0 14 -4
14 -10z"/>
<path d="M9901 4517 c-17 -21 -3 -45 30 -52 16 -4 26 -11 23 -16 -3 -6 -20 -7
-37 -3 -28 6 -30 5 -18 -10 17 -20 55 -21 71 -1 17 20 6 43 -25 51 -14 3 -25
11 -25 16 0 6 11 7 26 4 19 -5 25 -3 22 6 -6 18 -52 22 -67 5z"/>
<path d="M10119 4514 c-12 -15 -11 -16 21 -10 l35 6 -33 -15 c-27 -13 -33 -20
-30 -43 3 -24 7 -27 43 -29 l40 -2 -5 52 c-4 47 -8 52 -31 55 -15 2 -32 -4
-40 -14z m51 -48 c0 -21 -20 -30 -33 -17 -9 9 -8 14 3 21 21 14 30 12 30 -4z"/>
<path d="M10215 4509 c15 -50 34 -89 44 -89 8 0 41 81 41 102 0 22 -20 3 -31
-29 l-12 -38 -12 34 c-13 40 -42 58 -30 20z"/>
<path d="M10336 4514 c-34 -33 -7 -98 37 -92 12 2 28 15 36 29 13 24 13 29 -2
53 -20 29 -48 34 -71 10z m49 -39 c0 -33 -28 -47 -39 -19 -10 25 3 56 22 52
11 -2 17 -13 17 -33z"/>
<path d="M10440 4473 c0 -29 5 -53 10 -53 6 0 10 18 10 41 0 32 4 42 20 46 30
8 24 22 -10 21 -29 -1 -30 -2 -30 -55z"/>
<path d="M10510 4475 c0 -30 5 -55 10 -55 6 0 10 25 10 55 0 30 -4 55 -10 55
-5 0 -10 -25 -10 -55z"/>
<path d="M10629 4514 c-12 -15 -11 -16 21 -10 l35 6 -33 -15 c-27 -13 -33 -20
-30 -43 3 -24 7 -27 43 -29 l40 -2 -5 52 c-4 47 -8 52 -31 55 -15 2 -32 -4
-40 -14z m51 -48 c0 -21 -20 -30 -33 -17 -9 9 -8 14 3 21 21 14 30 12 30 -4z"/>
<path d="M10737 4523 c-17 -17 -5 -45 23 -56 42 -16 37 -31 -7 -22 -33 6 -35
5 -24 -9 29 -35 98 -5 74 32 -5 10 -20 18 -32 20 -11 2 -21 8 -21 13 0 7 13 8
32 3 29 -6 31 -5 19 10 -13 16 -52 22 -64 9z"/>
<path d="M687 4508 c2 -5 13 -8 23 -8 10 0 21 3 23 8 3 4 -8 7 -23 7 -15 0
-26 -3 -23 -7z"/>
<path d="M1247 4508 c2 -5 13 -8 23 -8 10 0 21 3 23 8 3 4 -8 7 -23 7 -15 0
-26 -3 -23 -7z"/>
<path d="M1668 4508 c5 -5 16 -8 23 -6 8 3 3 7 -10 11 -17 4 -21 3 -13 -5z"/>
<path d="M7012 4090 c-12 -33 -16 -60 -11 -60 5 0 12 7 15 15 8 20 44 19 60
-2 22 -32 24 -8 2 50 -11 31 -27 57 -33 57 -7 0 -22 -27 -33 -60z m48 -2 c0
-5 -7 -8 -15 -8 -15 0 -20 21 -8 33 7 7 23 -11 23 -25z"/>
<path d="M7185 4138 c-4 -11 -18 -18 -36 -18 -28 0 -29 -2 -29 -45 0 -25 5
-45 10 -45 6 0 10 16 10 35 0 28 4 35 20 35 16 0 20 -7 20 -30 0 -30 23 -51
38 -35 4 4 1 10 -5 12 -7 3 -13 15 -13 28 0 13 6 26 13 28 8 4 9 8 1 14 -6 4
-13 15 -16 23 -5 13 -7 12 -13 -2z"/>
<path d="M7230 4140 c0 -5 5 -10 10 -10 6 0 10 5 10 10 0 6 -4 10 -10 10 -5 0
-10 -4 -10 -10z"/>
<path d="M7373 4135 c-6 -11 -8 -38 -4 -60 l6 -40 56 -1 55 -1 -6 41 c-4 35
-8 41 -29 41 -13 0 -26 -5 -28 -12 -3 -7 4 -9 18 -6 15 4 20 3 15 -5 -4 -7
-14 -12 -22 -12 -8 0 -17 -7 -20 -15 -11 -28 -27 -15 -22 18 3 17 2 41 -2 52
-7 19 -7 19 -17 0z m87 -75 c0 -5 -7 -10 -16 -10 -8 0 -12 5 -9 10 3 6 10 10
16 10 5 0 9 -4 9 -10z"/>
<path d="M8837 4132 c-31 -34 -12 -102 28 -102 24 0 45 12 45 26 0 11 -4 12
-19 3 -30 -20 -53 -4 -49 33 2 25 8 34 26 36 13 2 22 -2 22 -9 0 -10 3 -10 12
-1 10 10 10 15 -2 22 -23 15 -45 12 -63 -8z"/>
<path d="M9210 4140 c0 -5 5 -10 10 -10 6 0 10 5 10 10 0 6 -4 10 -10 10 -5 0
-10 -4 -10 -10z"/>
<path d="M9290 4139 c0 -5 5 -7 10 -4 6 3 10 8 10 11 0 2 -4 4 -10 4 -5 0 -10
-5 -10 -11z"/>
<path d="M11317 4097 c-20 -63 -20 -67 -7 -67 6 0 10 7 10 15 0 10 10 15 30
15 20 0 30 -5 30 -15 0 -8 5 -15 10 -15 13 0 13 4 -7 67 -11 35 -22 53 -33 53
-11 0 -22 -18 -33 -53z m46 3 c4 -15 0 -20 -13 -20 -13 0 -17 5 -13 20 3 11 9
20 13 20 4 0 10 -9 13 -20z"/>
<path d="M11600 4140 c0 -5 5 -10 10 -10 6 0 10 5 10 10 0 6 -4 10 -10 10 -5
0 -10 -4 -10 -10z"/>
<path d="M7230 4075 c0 -25 5 -45 10 -45 6 0 10 20 10 45 0 25 -4 45 -10 45
-5 0 -10 -20 -10 -45z"/>
<path d="M7283 4109 c-14 -14 -6 -39 12 -39 8 0 17 -5 21 -11 5 -9 -1 -10 -21
-5 -25 6 -27 6 -15 -9 18 -22 54 -15 58 10 2 15 -5 24 -25 33 l-28 12 28 -6
c21 -3 28 -1 25 8 -6 17 -40 22 -55 7z"/>
<path d="M8947 4114 c-13 -14 -7 -22 13 -17 29 8 25 -6 -6 -17 -39 -15 -28
-45 17 -46 l35 -1 -6 41 c-4 31 -10 42 -25 44 -12 2 -24 0 -28 -4z m33 -54 c0
-5 -7 -10 -16 -10 -8 0 -12 5 -9 10 3 6 10 10 16 10 5 0 9 -4 9 -10z"/>
<path d="M9030 4074 c0 -24 5 -44 10 -44 6 0 10 16 10 35 0 24 5 35 15 35 10
0 15 -11 15 -35 0 -19 5 -35 11 -35 6 0 9 17 7 43 -3 40 -5 42 -35 44 -33 1
-33 1 -33 -43z"/>
<path d="M9130 4099 c-25 -45 28 -93 60 -55 10 13 7 15 -17 13 -22 -2 -28 2
-28 18 0 15 6 19 23 17 30 -3 24 22 -6 26 -13 2 -25 -5 -32 -19z"/>
<path d="M9210 4075 c0 -25 5 -45 10 -45 6 0 10 20 10 45 0 25 -4 45 -10 45
-5 0 -10 -20 -10 -45z"/>
<path d="M9266 4104 c-9 -8 -16 -22 -16 -29 0 -18 27 -45 45 -45 18 0 45 27
45 45 0 18 -27 45 -45 45 -7 0 -21 -7 -29 -16z m52 -27 c4 -20 -25 -34 -40
-19 -15 15 -1 44 19 40 10 -2 19 -11 21 -21z"/>
<path d="M9360 4074 c0 -24 5 -44 10 -44 6 0 10 16 10 35 0 24 5 35 15 35 10
0 15 -11 15 -35 0 -19 5 -35 11 -35 6 0 9 17 7 43 -3 40 -5 42 -35 44 -33 1
-33 1 -33 -43z"/>
<path d="M11432 4108 c-16 -16 -15 -53 3 -68 17 -14 47 -10 53 8 3 9 -3 11
-22 6 -23 -5 -26 -3 -26 21 0 24 3 26 27 20 23 -5 25 -4 14 9 -16 19 -33 20
-49 4z"/>
<path d="M11522 4108 c-16 -16 -15 -53 3 -68 17 -14 47 -10 53 8 3 9 -3 11
-22 6 -23 -5 -26 -3 -26 21 0 24 3 26 27 20 23 -5 25 -4 14 9 -16 19 -33 20
-49 4z"/>
<path d="M11600 4075 c0 -25 5 -45 10 -45 6 0 10 20 10 45 0 25 -4 45 -10 45
-5 0 -10 -20 -10 -45z"/>
<path d="M11650 4106 c-28 -35 11 -93 48 -70 35 22 22 84 -18 84 -10 0 -23 -7
-30 -14z m50 -31 c0 -25 -23 -35 -35 -15 -10 16 2 40 20 40 9 0 15 -9 15 -25z"/>
<path d="M11740 4074 c0 -51 17 -60 22 -11 2 20 8 32 18 32 10 0 16 -12 18
-32 4 -43 22 -42 22 1 0 39 -14 54 -52 54 -26 0 -28 -3 -28 -44z"/>
<path d="M11839 4099 c-16 -31 4 -71 33 -67 12 2 23 9 26 17 3 9 -1 11 -16 7
-11 -4 -23 -2 -27 4 -4 6 6 10 24 10 34 0 36 2 21 31 -14 25 -46 24 -61 -2z
m44 -6 c-7 -2 -19 -2 -25 0 -7 3 -2 5 12 5 14 0 19 -2 13 -5z"/>
<path d="M11937 4114 c-15 -15 -7 -44 12 -44 11 0 23 -5 27 -12 5 -8 -2 -9
-26 -5 -28 6 -31 5 -20 -8 15 -18 44 -19 58 -2 13 15 5 29 -28 45 l-25 12 28
-5 c21 -4 28 -2 25 7 -5 15 -40 23 -51 12z"/>
<path d="M202 3958 l1 -63 6 50 6 49 32 -49 c19 -29 33 -43 33 -32 0 9 -4 17
-8 17 -5 0 -18 18 -31 40 -34 60 -41 58 -39 -12z"/>
<path d="M320 3976 c-15 -19 -9 -56 12 -69 34 -22 66 41 36 71 -16 16 -33 15
-48 -2z m45 -31 c0 -23 -4 -30 -20 -30 -21 0 -31 25 -21 51 11 28 41 12 41
-21z"/>
<path d="M401 3941 l2 -46 6 40 c4 27 12 41 24 43 14 3 17 -4 18 -40 l2 -43 6
40 c4 26 12 41 23 43 13 3 18 -6 21 -40 l4 -43 -1 45 -1 45 -52 1 -53 1 1 -46z"/>
<path d="M635 3980 c-3 -6 1 -7 9 -4 18 7 21 14 7 14 -6 0 -13 -4 -16 -10z"/>
<path d="M685 3979 c-4 -6 -4 -13 -1 -16 3 -4 6 -1 6 5 0 6 8 13 18 15 15 4
15 5 0 6 -9 0 -20 -4 -23 -10z"/>
<path d="M910 3976 c-25 -31 13 -97 40 -70 8 8 4 10 -11 10 -12 -1 -24 5 -26
12 -3 8 6 12 26 12 17 0 31 4 31 8 0 5 -14 6 -31 4 -24 -4 -30 -1 -27 9 3 8
14 14 26 13 12 0 19 3 16 8 -8 13 -30 9 -44 -6z"/>
<path d="M1076 3982 c-3 -5 6 -7 19 -4 34 6 32 -14 -2 -27 l-28 -11 28 5 c24
5 28 3 25 -12 -2 -11 -12 -18 -25 -17 -12 0 -20 -3 -17 -8 3 -4 16 -7 30 -6
23 2 25 6 22 43 -2 32 -7 41 -25 43 -11 2 -24 -1 -27 -6z"/>
<path d="M1220 3986 c0 -2 9 -6 20 -9 11 -3 18 -1 14 4 -5 9 -34 13 -34 5z"/>
<path d="M1300 3986 c0 -2 9 -6 20 -9 11 -3 18 -1 14 4 -5 9 -34 13 -34 5z"/>
<path d="M1371 3940 l2 -45 6 40 c5 33 10 40 28 39 12 0 20 3 17 8 -3 4 -16 7
-29 6 -23 -2 -25 -6 -24 -48z"/>
<path d="M1480 3986 c0 -2 9 -6 20 -9 11 -3 18 -1 14 4 -5 9 -34 13 -34 5z"/>
<path d="M1543 3945 c0 -27 2 -38 4 -22 2 15 2 37 0 50 -2 12 -4 0 -4 -28z"/>
<path d="M1586 3981 c-4 -5 3 -7 14 -4 23 6 26 13 6 13 -8 0 -17 -4 -20 -9z"/>
<path d="M1690 3986 c0 -2 7 -7 16 -10 8 -3 12 -2 9 4 -6 10 -25 14 -25 6z"/>
<path d="M1294 3944 c-19 -15 -19 -15 1 -6 11 5 27 12 35 15 13 5 13 6 -1 6
-8 1 -24 -6 -35 -15z"/>
<path d="M1571 3944 c0 -11 3 -14 6 -6 3 7 2 16 -1 19 -3 4 -6 -2 -5 -13z"/>
<path d="M693 3943 c9 -2 25 -2 35 0 9 3 1 5 -18 5 -19 0 -27 -2 -17 -5z"/>
<path d="M1330 3921 c0 -6 4 -13 10 -16 6 -3 7 1 4 9 -7 18 -14 21 -14 7z"/>
<path d="M687 3908 c2 -5 13 -8 23 -8 10 0 21 3 23 8 3 4 -8 7 -23 7 -15 0
-26 -3 -23 -7z"/>
<path d="M1235 3910 c-16 -7 -17 -9 -3 -9 9 -1 20 4 23 9 7 11 7 11 -20 0z"/>
<path d="M1288 3908 c5 -5 16 -8 23 -6 8 3 3 7 -10 11 -17 4 -21 3 -13 -5z"/>
<path d="M1495 3910 c-16 -7 -17 -9 -3 -9 9 -1 20 4 23 9 7 11 7 11 -20 0z"/>
<path d="M1588 3908 c5 -5 16 -8 23 -6 8 3 3 7 -10 11 -17 4 -21 3 -13 -5z"/>
<path d="M6660 3400 l0 -200 190 0 190 0 0 200 0 200 -190 0 -190 0 0 -200z
m150 -100 c0 -5 -4 -10 -10 -10 -5 0 -10 5 -10 10 0 6 5 10 10 10 6 0 10 -4
10 -10z m90 -4 c0 -2 -7 -6 -15 -10 -8 -3 -15 -1 -15 4 0 6 7 10 15 10 8 0 15
-2 15 -4z"/>
<path d="M1682 3558 c-8 -8 -12 -58 -12 -158 0 -100 4 -150 12 -158 17 -17
789 -17 806 0 17 17 17 299 0 316 -17 17 -789 17 -806 0z m803 -158 l0 -155
-400 0 -400 0 -3 145 c-1 79 0 150 2 157 4 11 83 13 403 11 l398 -3 0 -155z"/>
<path d="M1850 3410 l0 -60 45 0 c25 0 45 5 45 10 0 6 -16 10 -35 10 -24 0
-35 5 -35 15 0 10 10 15 30 15 17 0 30 5 30 10 0 6 -13 10 -30 10 -20 0 -30 5
-30 15 0 10 10 15 30 15 17 0 30 5 30 10 0 6 -18 10 -40 10 l-40 0 0 -60z"/>
<path d="M2140 3460 c0 -5 5 -10 10 -10 6 0 10 5 10 10 0 6 -4 10 -10 10 -5 0
-10 -4 -10 -10z"/>
<path d="M1960 3394 c0 -24 5 -44 10 -44 6 0 10 16 10 35 0 24 5 35 15 35 10
0 15 -11 15 -35 0 -19 5 -35 11 -35 6 0 9 17 7 43 -3 40 -5 42 -35 44 -33 1
-33 1 -33 -43z"/>
<path d="M2056 3418 c25 -82 33 -85 55 -23 19 51 6 62 -14 13 l-14 -33 -7 33
c-4 17 -12 32 -17 32 -6 0 -7 -10 -3 -22z"/>
<path d="M2140 3395 c0 -25 5 -45 10 -45 6 0 10 20 10 45 0 25 -4 45 -10 45
-5 0 -10 -20 -10 -45z"/>
<path d="M2197 3434 c-13 -14 -7 -22 13 -17 29 8 25 -6 -6 -17 -39 -15 -28
-45 17 -46 l35 -1 -6 41 c-4 31 -10 42 -25 44 -12 2 -24 0 -28 -4z m33 -54 c0
-5 -7 -10 -16 -10 -8 0 -12 5 -9 10 3 6 10 10 16 10 5 0 9 -4 9 -10z"/>
<path d="M2280 3395 c0 -25 5 -45 10 -45 6 0 10 16 10 35 0 24 5 35 15 35 8 0
15 5 15 10 0 6 -11 10 -25 10 -23 0 -25 -4 -25 -45z"/>
<path d="M2592 3558 c-8 -8 -12 -58 -12 -158 0 -100 4 -150 12 -158 17 -17
1569 -17 1586 0 17 17 17 299 0 316 -17 17 -1569 17 -1586 0z m1583 -158 l0
-155 -790 0 -790 0 -3 145 c-1 79 0 150 2 157 4 11 154 13 793 11 l788 -3 0
-155z"/>
<path d="M2776 3454 c-34 -33 -10 -104 34 -104 34 0 50 12 50 36 0 19 -5 24
-25 24 -14 0 -25 -4 -25 -10 0 -5 7 -10 15 -10 8 0 15 -5 15 -11 0 -6 -12 -9
-27 -7 -23 2 -29 8 -31 36 -4 37 19 53 48 34 22 -13 34 -4 19 15 -15 18 -54
17 -73 -3z"/>
<path d="M3190 3450 c0 -13 -5 -18 -15 -14 -21 8 -45 -14 -45 -41 0 -29 18
-43 53 -43 26 0 27 2 27 59 0 33 -4 59 -10 59 -5 0 -10 -9 -10 -20z m-5 -55
c0 -11 -8 -21 -17 -23 -14 -3 -18 3 -18 23 0 20 4 26 18 23 9 -2 17 -12 17
-23z"/>
<path d="M3790 3460 c0 -5 5 -10 10 -10 6 0 10 5 10 10 0 6 -4 10 -10 10 -5 0
-10 -4 -10 -10z"/>
<path d="M3865 3460 c-3 -5 -2 -10 4 -10 5 0 13 5 16 10 3 6 2 10 -4 10 -5 0
-13 -4 -16 -10z"/>
<path d="M2880 3408 c0 -45 10 -57 48 -56 31 1 32 2 32 45 0 50 -17 59 -22 11
-2 -22 -9 -34 -20 -36 -15 -3 -18 4 -18 32 0 20 -4 36 -10 36 -5 0 -10 -15
-10 -32z"/>
<path d="M2987 3433 c-15 -14 -5 -23 21 -18 l27 5 -28 -12 c-40 -17 -34 -52
11 -55 29 -1 32 1 32 27 0 16 -3 35 -6 44 -6 16 -45 22 -57 9z m38 -53 c-3 -5
-10 -10 -16 -10 -5 0 -9 5 -9 10 0 6 7 10 16 10 8 0 12 -4 9 -10z"/>
<path d="M3070 3394 c0 -24 5 -44 10 -44 6 0 10 14 10 30 0 18 6 33 15 36 23
9 18 22 -10 22 -23 0 -25 -4 -25 -44z"/>
<path d="M3237 3433 c-15 -14 -5 -23 21 -18 l27 5 -28 -12 c-40 -17 -34 -52
11 -55 29 -1 32 1 32 27 0 16 -3 35 -6 44 -6 16 -45 22 -57 9z m38 -53 c-3 -5
-10 -10 -16 -10 -5 0 -9 5 -9 10 0 6 7 10 16 10 8 0 12 -4 9 -10z"/>
<path d="M3320 3394 c0 -24 5 -44 10 -44 6 0 10 14 10 30 0 18 6 33 15 36 23
9 18 22 -10 22 -23 0 -25 -4 -25 -44z"/>
<path d="M3430 3419 c-25 -45 28 -93 60 -55 10 13 7 15 -17 13 -22 -2 -28 2
-28 18 0 15 6 19 23 17 30 -3 24 22 -6 26 -13 2 -25 -5 -32 -19z"/>
<path d="M3527 3434 c-14 -14 -7 -22 16 -17 19 3 18 2 -6 -12 -39 -22 -32 -50
11 -50 32 -1 33 0 30 40 -2 31 -7 41 -23 43 -12 2 -24 0 -28 -4z m33 -54 c0
-5 -7 -10 -16 -10 -8 0 -12 5 -9 10 3 6 10 10 16 10 5 0 9 -4 9 -10z"/>
<path d="M3600 3393 c0 -50 17 -59 22 -10 2 20 8 32 18 32 10 0 16 -12 18 -32
2 -18 7 -33 13 -33 11 0 12 60 1 77 -4 6 -22 11 -40 11 -31 -1 -32 -2 -32 -45z"/>
<path d="M3712 3428 c-16 -16 -15 -53 3 -68 17 -14 47 -10 53 8 3 9 -3 11 -22
6 -23 -5 -26 -3 -26 21 0 24 3 26 26 21 19 -5 25 -3 22 6 -6 18 -40 22 -56 6z"/>
<path d="M3790 3395 c0 -25 5 -45 10 -45 6 0 10 20 10 45 0 25 -4 45 -10 45
-5 0 -10 -20 -10 -45z"/>
<path d="M3839 3419 c-8 -16 -8 -28 0 -45 18 -41 71 -25 71 21 0 44 -50 61
-71 24z m54 -11 c6 -19 -3 -38 -18 -38 -18 0 -28 17 -21 35 7 18 33 20 39 3z"/>
<path d="M3930 3393 c0 -50 17 -59 22 -10 2 20 8 32 18 32 10 0 16 -12 18 -32
2 -18 7 -33 13 -33 11 0 12 60 1 77 -4 6 -22 11 -40 11 -31 -1 -32 -2 -32 -45z"/>
<path d="M10802 3538 c-17 -17 -17 -299 0 -316 17 -17 549 -17 566 0 8 8 12
58 12 158 0 100 -4 150 -12 158 -17 17 -549 17 -566 0z m563 -158 l0 -155
-280 0 -280 0 -3 145 c-1 79 0 150 2 157 4 11 61 13 283 11 l278 -3 0 -155z"/>
<path d="M10981 3391 c12 -34 25 -61 30 -61 11 0 33 48 44 93 12 47 -11 29
-26 -20 l-15 -48 -15 44 c-9 25 -20 46 -27 49 -7 2 -3 -20 9 -57z"/>
<path d="M11069 3399 c-16 -31 4 -71 33 -67 12 2 23 9 26 17 3 9 -1 11 -16 7
-11 -4 -23 -2 -27 4 -4 6 6 10 24 10 34 0 36 2 21 31 -14 25 -46 24 -61 -2z
m44 -6 c-7 -2 -19 -2 -25 0 -7 3 -2 5 12 5 14 0 19 -2 13 -5z"/>
<path d="M11160 3375 c0 -25 5 -45 10 -45 6 0 10 16 10 35 0 24 5 35 15 35 8
0 15 5 15 10 0 6 -11 10 -25 10 -23 0 -25 -4 -25 -45z"/>
<path d="M11472 3538 c-17 -17 -17 -299 0 -316 17 -17 929 -17 946 0 8 8 12
58 12 158 0 100 -4 150 -12 158 -17 17 -929 17 -946 0z m943 -158 l0 -155
-470 0 -470 0 -3 145 c-1 79 0 150 2 157 4 11 96 13 473 11 l468 -3 0 -155z"/>
<path d="M11640 3390 l0 -60 45 0 c25 0 45 5 45 10 0 6 -16 10 -35 10 -24 0
-35 5 -35 15 0 10 10 15 30 15 17 0 30 5 30 10 0 6 -13 10 -30 10 -20 0 -30 5
-30 15 0 10 10 15 30 15 17 0 30 5 30 10 0 6 -18 10 -40 10 l-40 0 0 -60z"/>
<path d="M11750 3390 c0 -33 4 -60 10 -60 6 0 10 27 10 60 0 33 -4 60 -10 60
-6 0 -10 -27 -10 -60z"/>
<path d="M11790 3440 c0 -5 5 -10 10 -10 6 0 10 5 10 10 0 6 -4 10 -10 10 -5
0 -10 -4 -10 -10z"/>
<path d="M11980 3440 c0 -5 5 -10 10 -10 6 0 10 5 10 10 0 6 -4 10 -10 10 -5
0 -10 -4 -10 -10z"/>
<path d="M11790 3375 c0 -25 5 -45 10 -45 6 0 10 20 10 45 0 25 -4 45 -10 45
-5 0 -10 -20 -10 -45z"/>
<path d="M11841 3370 c1 -44 1 -44 9 -12 4 18 10 35 13 39 12 11 27 -10 28
-40 1 -34 3 -30 13 16 9 37 29 30 38 -14 5 -31 6 -29 5 11 l-2 45 -52 0 -53 0
1 -45z"/>
<path d="M11980 3375 c0 -25 5 -45 10 -45 6 0 10 20 10 45 0 25 -4 45 -10 45
-5 0 -10 -20 -10 -45z"/>
<path d="M12020 3374 c0 -51 17 -60 22 -11 2 20 8 32 18 32 10 0 16 -12 18
-32 4 -43 22 -42 22 1 0 39 -14 54 -52 54 -26 0 -28 -3 -28 -44z"/>
<path d="M12127 3413 c-15 -14 -5 -23 21 -18 l27 5 -28 -12 c-40 -17 -34 -52
11 -55 29 -1 32 1 32 27 0 16 -3 35 -6 44 -6 16 -45 22 -57 9z m38 -53 c-3 -5
-10 -10 -16 -10 -5 0 -9 5 -9 10 0 6 7 10 16 10 8 0 12 -4 9 -10z"/>
<path d="M12210 3375 c0 -25 5 -45 10 -45 6 0 10 16 10 35 0 24 5 35 15 35 8
0 15 5 15 10 0 6 -11 10 -25 10 -23 0 -25 -4 -25 -45z"/>
<path d="M7356 3434 c-9 -8 -16 -28 -16 -44 0 -38 24 -60 64 -60 31 0 32 2 35
44 3 66 -44 100 -83 60z m63 -8 c31 -37 -9 -103 -46 -80 -37 23 -24 94 17 94
10 0 23 -6 29 -14z"/>
<path d="M8400 3391 c0 -60 0 -61 29 -61 42 0 54 20 44 72 -8 39 -11 43 -41
46 l-32 3 0 -60z m60 29 c0 -15 -7 -20 -25 -20 -18 0 -25 5 -25 20 0 15 7 20
25 20 18 0 25 -5 25 -20z m5 -55 c0 -14 -8 -21 -27 -23 -24 -3 -28 0 -28 23 0
23 4 26 28 23 19 -2 27 -9 27 -23z"/>
<path d="M8593 3390 c0 -53 1 -57 6 -25 4 27 12 41 24 43 14 3 17 -4 17 -37 0
-23 5 -41 10 -41 12 0 13 60 1 79 -5 8 -18 12 -29 9 -16 -4 -22 0 -25 16 -2
11 -4 -8 -4 -44z"/>
<path d="M9160 3390 c0 -33 4 -60 10 -60 6 0 10 11 10 25 0 15 6 25 15 25 8 0
22 -11 31 -25 9 -14 20 -25 25 -25 5 0 2 11 -7 25 -13 20 -14 28 -4 40 6 8 9
23 5 35 -5 16 -15 20 -46 20 l-39 0 0 -60z m75 25 c0 -14 -8 -21 -27 -23 -24
-3 -28 0 -28 23 0 23 4 26 28 23 19 -2 27 -9 27 -23z"/>
<path d="M9282 3390 c1 -54 2 -58 7 -25 4 26 11 40 21 40 10 0 17 -14 21 -40
l7 -40 -2 45 c-1 38 -4 45 -21 45 -11 0 -23 9 -27 20 -3 11 -6 -9 -6 -45z"/>
<path d="M9770 3430 c0 -13 -5 -18 -15 -14 -21 8 -45 -14 -45 -41 0 -28 19
-45 48 -42 20 1 22 7 22 59 0 32 -2 58 -5 58 -3 0 -5 -9 -5 -20z m-5 -39 c8
-26 -5 -53 -24 -49 -29 6 -27 68 3 68 8 0 17 -8 21 -19z"/>
<path d="M7461 3390 c-1 -46 9 -61 42 -58 25 2 27 5 26 48 -1 25 -3 36 -6 25
-2 -11 -6 -30 -9 -42 -2 -13 -11 -23 -19 -23 -8 0 -17 10 -19 23 -3 12 -7 31
-9 42 -3 11 -5 4 -6 -15z"/>
<path d="M7560 3406 c-15 -20 -9 -56 12 -70 14 -8 21 -6 35 9 16 17 17 18 1 6
-19 -14 -48 -9 -48 9 0 5 14 10 30 10 31 0 39 17 18 38 -16 16 -33 15 -48 -2z
m48 -13 c2 -8 -6 -13 -22 -13 -25 0 -33 10 -19 24 10 10 36 3 41 -11z"/>
<path d="M7650 3406 c-15 -20 -9 -56 12 -70 14 -8 21 -6 35 9 16 17 17 18 1 6
-19 -14 -48 -9 -48 9 0 5 14 10 30 10 31 0 39 17 18 38 -16 16 -33 15 -48 -2z
m48 -13 c2 -8 -6 -13 -22 -13 -25 0 -33 10 -19 24 10 10 36 3 41 -11z"/>
<path d="M7731 3370 l2 -45 6 40 c4 27 12 41 24 43 14 3 17 -4 17 -37 0 -23 5
-41 10 -41 12 0 13 60 2 78 -5 6 -20 11 -35 10 -25 -2 -27 -5 -26 -48z"/>
<path d="M8510 3406 c-15 -19 -9 -56 12 -69 34 -22 66 41 36 71 -16 16 -33 15
-48 -2z m45 -31 c0 -23 -4 -30 -20 -30 -21 0 -31 25 -21 51 11 28 41 12 41
-21z"/>
<path d="M8690 3406 c-15 -20 -9 -56 12 -70 14 -8 21 -6 35 9 16 17 17 18 1 6
-19 -14 -48 -9 -48 9 0 5 14 10 30 10 31 0 39 17 18 38 -16 16 -33 15 -48 -2z
m48 -13 c2 -8 -6 -13 -22 -13 -25 0 -33 10 -19 24 10 10 36 3 41 -11z"/>
<path d="M8771 3371 l2 -46 6 40 c4 26 11 40 21 40 10 0 17 -14 21 -40 l5 -40
5 40 c3 27 9 40 19 40 10 0 17 -14 21 -40 l7 -40 -2 45 -1 45 -52 1 -53 1 1
-46z"/>
<path d="M8903 3375 c0 -27 2 -38 4 -22 2 15 2 37 0 50 -2 12 -4 0 -4 -28z"/>
<path d="M8945 3410 c-4 -6 -4 -14 -1 -17 3 -4 6 -1 6 5 0 7 9 12 20 12 27 0
25 -17 -2 -26 -49 -15 -44 -54 6 -52 31 1 32 2 26 42 -4 32 -10 42 -27 44 -11
2 -24 -2 -28 -8z m45 -45 c0 -19 -24 -30 -41 -19 -9 5 -7 11 6 21 24 17 35 17
35 -2z"/>
<path d="M9031 3371 l2 -46 6 40 c4 26 12 41 23 43 13 3 18 -6 21 -40 l4 -43
-1 45 c-1 42 -3 45 -28 46 -27 1 -28 -1 -27 -45z"/>
<path d="M9375 3410 c-4 -6 -4 -14 -1 -17 3 -4 6 -1 6 5 0 7 9 12 20 12 30 0
24 -17 -11 -29 -42 -15 -36 -46 9 -47 33 -1 33 0 30 40 -2 33 -7 42 -25 44
-11 2 -24 -2 -28 -8z m45 -45 c0 -19 -24 -30 -41 -19 -9 5 -7 11 6 21 24 17
35 17 35 -2z"/>
<path d="M9451 3355 c1 -33 4 -50 6 -38 3 14 9 20 19 16 20 -7 44 15 44 42 0
28 -19 45 -48 42 -20 -1 -22 -6 -21 -62z m54 20 c0 -33 -28 -47 -39 -19 -10
25 3 56 22 52 11 -2 17 -13 17 -33z"/>
<path d="M9547 3413 c-14 -14 -6 -34 18 -43 33 -13 33 -34 -1 -27 -16 3 -22 1
-16 -5 15 -15 46 -5 50 15 2 11 -6 20 -22 27 -33 12 -34 34 -1 28 13 -3 22 -1
19 3 -6 11 -38 12 -47 2z"/>
<path d="M9630 3406 c-15 -19 -9 -56 12 -69 34 -22 66 41 36 71 -16 16 -33 15
-48 -2z m45 -31 c0 -23 -4 -30 -20 -30 -21 0 -31 25 -21 51 11 28 41 12 41
-21z"/>
<path d="M9805 3400 c3 -14 8 -38 12 -54 4 -19 1 -31 -8 -37 -11 -7 -11 -9 -1
-9 14 0 37 48 46 96 5 28 5 27 -6 -3 -6 -18 -14 -33 -18 -33 -4 0 -12 15 -18
33 -7 17 -9 21 -7 7z"/>
<path d="M2280 2170 c0 -56 3 -70 15 -70 10 0 15 10 15 30 0 25 4 30 25 30 21
0 25 -5 25 -30 0 -20 5 -30 15 -30 12 0 15 14 15 70 0 56 -3 70 -15 70 -9 0
-15 -9 -15 -25 0 -20 -5 -25 -25 -25 -20 0 -25 5 -25 25 0 16 -6 25 -15 25
-12 0 -15 -14 -15 -70z"/>
<path d="M2670 2170 c0 -56 3 -70 15 -70 10 0 15 10 15 30 0 27 3 30 30 30 27
0 30 -3 30 -30 0 -16 5 -30 10 -30 6 0 10 30 10 70 0 40 -4 70 -10 70 -5 0
-10 -11 -10 -25 0 -21 -5 -25 -30 -25 -25 0 -30 4 -30 25 0 16 -6 25 -15 25
-12 0 -15 -14 -15 -70z"/>
<path d="M3140 2230 c0 -5 7 -10 15 -10 8 0 15 5 15 10 0 6 -7 10 -15 10 -8 0
-15 -4 -15 -10z"/>
<path d="M9300 2170 c0 -56 3 -70 15 -70 9 0 15 9 15 25 0 21 5 25 28 25 33 0
52 16 52 45 0 32 -20 45 -67 45 l-43 0 0 -70z m80 25 c0 -9 -9 -15 -25 -15
-16 0 -25 6 -25 15 0 9 9 15 25 15 16 0 25 -6 25 -15z"/>
<path d="M9430 2230 c0 -5 7 -10 15 -10 8 0 15 5 15 10 0 6 -7 10 -15 10 -8 0
-15 -4 -15 -10z"/>
<path d="M9590 2170 c0 -56 3 -70 15 -70 8 0 15 9 15 20 0 11 4 20 9 20 5 0
13 -9 16 -20 3 -11 13 -20 21 -20 18 0 18 4 -2 41 -14 28 -14 32 2 50 22 24
-1 27 -28 2 -17 -15 -18 -14 -18 15 0 22 -5 32 -15 32 -12 0 -15 -14 -15 -70z"/>
<path d="M9750 2170 c0 -56 3 -70 15 -70 10 0 15 10 15 30 0 27 3 30 30 30 20
0 30 5 30 15 0 10 -10 15 -30 15 -16 0 -30 5 -30 10 0 6 16 10 35 10 24 0 35
5 35 15 0 11 -12 15 -50 15 l-50 0 0 -70z"/>
<path d="M9860 2170 c0 -56 3 -70 15 -70 12 0 15 14 15 70 0 56 -3 70 -15 70
-12 0 -15 -14 -15 -70z"/>
<path d="M10200 2221 c0 -14 -5 -18 -20 -14 -29 8 -50 -14 -50 -52 0 -41 15
-53 63 -53 l37 0 0 69 c0 55 -3 69 -15 69 -8 0 -15 -9 -15 -19z m-5 -67 c0
-19 -5 -29 -15 -29 -16 0 -25 28 -16 51 10 25 31 10 31 -22z"/>
<path d="M2422 2198 c-7 -7 -12 -26 -12 -43 0 -17 5 -36 12 -43 17 -17 53 -15
69 4 12 15 10 16 -17 10 -24 -5 -33 -3 -37 8 -5 13 1 16 28 16 39 0 46 17 19
44 -18 19 -45 21 -62 4z m48 -18 c0 -5 -9 -10 -21 -10 -11 0 -17 5 -14 10 3 6
13 10 21 10 8 0 14 -4 14 -10z"/>
<path d="M2523 2154 c19 -53 20 -57 4 -69 -22 -16 -21 -25 2 -25 24 0 25 2 56
85 22 59 23 66 8 63 -9 -2 -21 -18 -26 -38 l-10 -35 -12 35 c-6 19 -19 36 -27
38 -14 3 -13 -5 5 -54z"/>
<path d="M2816 2194 c-31 -31 -12 -94 28 -94 13 0 29 7 37 16 11 13 9 15 -16
12 -16 -2 -30 2 -32 10 -3 8 6 12 26 12 23 0 31 5 31 18 0 39 -45 55 -74 26z
m49 -14 c3 -5 -3 -10 -14 -10 -12 0 -21 5 -21 10 0 6 6 10 14 10 8 0 18 -4 21
-10z"/>
<path d="M2905 2193 c22 -58 30 -106 18 -110 -20 -7 -15 -23 6 -23 14 0 25 14
39 53 33 90 35 97 18 97 -8 0 -17 -13 -21 -30 -4 -16 -10 -30 -15 -30 -5 0
-11 14 -15 30 -4 17 -13 30 -22 30 -10 0 -13 -6 -8 -17z"/>
<path d="M3070 2153 c0 -29 5 -53 10 -53 6 0 10 10 10 23 0 38 12 67 26 67 8
0 14 4 14 9 0 5 -13 9 -30 9 -29 -1 -30 -2 -30 -55z"/>
<path d="M3140 2155 c0 -42 3 -55 15 -55 12 0 15 13 15 55 0 42 -3 55 -15 55
-12 0 -15 -13 -15 -55z"/>
<path d="M3197 2204 c-17 -18 -6 -46 23 -57 39 -15 39 -30 -1 -22 -24 5 -30 4
-27 -6 6 -18 55 -24 74 -8 23 19 16 40 -16 52 -37 14 -40 30 -4 21 20 -5 25
-3 22 7 -5 15 -59 25 -71 13z"/>
<path d="M3306 2194 c-31 -31 -12 -94 28 -94 13 0 29 7 37 16 11 13 9 15 -16
12 -16 -2 -30 2 -32 10 -3 8 6 12 26 12 23 0 31 5 31 18 0 39 -45 55 -74 26z
m49 -14 c3 -5 -3 -10 -14 -10 -12 0 -21 5 -21 10 0 6 6 10 14 10 8 0 18 -4 21
-10z"/>
<path d="M3450 2166 c0 -51 13 -65 58 -64 32 1 32 1 32 55 0 29 -4 53 -10 53
-5 0 -10 -10 -10 -22 0 -39 -12 -68 -26 -68 -10 0 -14 13 -14 45 0 33 -4 45
-15 45 -11 0 -15 -12 -15 -44z"/>
<path d="M3570 2135 c0 -60 3 -75 15 -75 8 0 15 9 15 20 0 13 7 20 19 20 24 0
44 24 44 55 0 36 -21 55 -59 55 l-34 0 0 -75z m65 36 c7 -24 -3 -51 -20 -51
-15 0 -23 26 -17 53 6 23 29 22 37 -2z"/>
<path d="M9430 2155 c0 -42 3 -55 15 -55 12 0 15 13 15 55 0 42 -3 55 -15 55
-12 0 -15 -13 -15 -55z"/>
<path d="M9480 2154 c0 -41 4 -54 15 -54 11 0 15 12 15 45 0 33 4 45 15 45 11
0 15 -12 15 -45 0 -33 4 -45 15 -45 11 0 15 11 15 43 0 56 -8 65 -52 65 l-38
0 0 -54z"/>
<path d="M9923 2184 c-15 -24 -15 -29 -2 -53 29 -51 89 -35 89 23 0 59 -55 78
-87 30z m59 -11 c7 -30 -4 -54 -21 -51 -29 6 -27 68 3 68 8 0 16 -8 18 -17z"/>
<path d="M10023 2193 c29 -88 31 -104 17 -113 -8 -5 -11 -12 -7 -17 14 -13 39
12 57 57 31 81 33 90 15 90 -9 0 -18 -12 -21 -30 -4 -16 -10 -30 -14 -30 -5 0
-11 14 -15 30 -4 17 -13 30 -22 30 -10 0 -13 -6 -10 -17z"/>
<path d="M2792 1783 l-2 -63 38 2 c36 1 36 1 5 5 -31 4 -32 5 -36 61 l-3 57
-2 -62z"/>
<path d="M2963 1823 c-11 -22 -2 -95 12 -100 6 -2 9 19 8 53 -2 62 -7 75 -20
47z"/>
<path d="M7846 1811 c17 -10 43 -18 59 -18 l29 0 -35 18 c-19 10 -45 18 -59
19 -25 0 -24 0 6 -19z"/>
<path d="M2877 1804 c-4 -4 -7 -12 -7 -18 0 -6 5 -5 12 2 14 14 38 16 38 2 0
-5 -11 -13 -26 -16 -18 -5 -24 -12 -22 -28 2 -16 11 -22 36 -24 l33 -3 -3 43
c-3 38 -6 43 -28 46 -14 2 -29 0 -33 -4z m35 -66 c-11 -11 -32 -3 -32 12 0 12
34 18 39 7 2 -5 -1 -13 -7 -19z"/>
<path d="M3013 1765 c0 -27 2 -38 4 -22 2 15 2 37 0 50 -2 12 -4 0 -4 -28z"/>
<path d="M3040 1766 c0 -25 5 -46 10 -46 6 0 10 18 10 40 0 29 4 40 15 40 11
0 15 -11 15 -40 0 -22 5 -40 11 -40 6 0 9 17 7 43 -3 39 -5 42 -35 45 -33 3
-33 3 -33 -42z"/>
<path d="M8518 1805 c-3 -3 -52 -6 -110 -8 -106 -2 -138 -12 -138 -43 0 -31
39 -36 174 -24 103 10 186 10 386 1 308 -14 360 -19 360 -37 0 -8 7 -14 16
-14 10 0 14 -6 10 -15 -4 -11 2 -15 20 -15 25 0 26 1 11 24 -9 13 -13 26 -10
30 13 13 196 -1 254 -19 22 -7 32 -109 18 -177 l-11 -51 -16 26 c-23 37 -31
34 -29 -13 3 -50 -16 -53 -23 -3 l-6 38 -8 -44 -8 -45 -16 30 c-8 16 -34 52
-58 81 -24 28 -44 56 -44 62 0 6 -7 11 -15 11 -24 0 -17 18 11 33 17 9 23 17
15 21 -6 4 -18 0 -27 -8 -8 -9 -21 -16 -29 -16 -7 0 -23 -9 -36 -19 -23 -19
-23 -20 -5 -34 15 -11 16 -17 7 -34 -8 -17 -8 -22 4 -27 9 -3 15 0 15 9 0 8 7
15 16 15 14 0 14 -3 4 -15 -10 -13 -9 -15 9 -15 12 0 24 -7 28 -16 3 -8 12
-13 19 -10 10 4 14 -5 14 -34 0 -25 -5 -40 -12 -40 -7 0 -23 -3 -35 -6 -17 -5
-26 1 -40 23 -24 40 -33 40 -51 2 -15 -31 -15 -33 6 -47 12 -8 22 -25 22 -37
0 -26 64 -75 99 -75 32 0 61 -18 61 -37 0 -16 -25 -100 -56 -189 -19 -54 -78
-89 -132 -79 -20 4 -66 8 -102 9 -36 1 -75 7 -87 14 -21 12 -23 11 -21 -13 1
-14 6 -25 10 -25 4 0 8 -10 8 -22 0 -12 7 -30 17 -40 9 -10 14 -20 12 -22 -5
-5 -162 130 -167 143 -1 4 9 13 23 19 14 6 25 18 25 26 0 7 6 19 14 25 8 7 15
47 20 116 10 155 52 250 103 231 12 -5 10 -10 -11 -27 -14 -11 -26 -25 -26
-30 0 -13 54 -11 68 3 9 9 16 8 30 -5 24 -22 27 -22 47 9 16 24 16 27 -1 45
-16 18 -16 21 2 54 19 35 19 36 -5 79 -14 28 -20 52 -16 65 6 21 27 30 23 10
-5 -19 19 -21 26 -3 16 42 -43 38 -103 -8 -13 -10 -27 -15 -31 -13 -5 3 -18
-7 -30 -22 -24 -31 -10 -45 18 -20 11 10 23 13 31 8 16 -10 6 -32 -12 -26 -7
3 -32 -13 -56 -35 -25 -22 -53 -40 -63 -40 -10 0 -18 -5 -18 -11 0 -5 -4 -7
-10 -4 -5 3 -10 0 -10 -7 0 -8 -13 -32 -29 -54 -32 -44 -74 -153 -69 -181 1
-10 -6 -36 -16 -58 -11 -22 -20 -63 -22 -92 -3 -58 -27 -103 -56 -103 -15 0
-18 -5 -13 -20 4 -14 2 -20 -9 -20 -8 0 -18 5 -21 10 -3 6 -21 10 -40 10 -19
0 -37 5 -41 11 -4 7 -21 8 -43 5 -26 -5 -32 -4 -21 3 11 8 -2 11 -48 11 -62 0
-73 -4 -177 -59 -39 -21 -79 -25 -125 -12 -22 6 -19 9 30 25 79 26 95 38 40
31 l-45 -5 30 15 c17 8 50 23 75 33 l45 19 -47 -1 c-28 -1 -50 -6 -53 -13 -2
-7 -11 -13 -19 -13 -21 0 -76 -49 -86 -76 -6 -16 -20 -25 -45 -30 -36 -6 -55
-28 -55 -62 0 -26 -71 -102 -95 -102 -16 0 -13 5 15 28 l34 29 -79 6 c-43 4
-81 5 -83 2 -3 -3 3 -14 14 -26 21 -24 20 -68 -2 -85 -23 -18 -16 -24 26 -24
42 0 100 -23 100 -40 0 -9 -88 -5 -122 6 -17 5 -18 -14 -18 -305 l0 -311 1210
0 1210 0 1 43 c2 94 -2 107 -53 175 -48 63 -78 118 -78 142 0 21 39 9 69 -21
33 -33 38 -48 19 -67 -9 -9 -8 -12 6 -12 9 0 15 -4 11 -9 -3 -5 -2 -12 2 -14
5 -3 8 54 8 126 0 124 -1 132 -21 142 -12 6 -30 17 -39 25 -16 14 -17 13 -11
-7 9 -27 -9 -39 -31 -21 -15 11 -16 10 -10 -10 5 -22 4 -23 -12 -8 -10 9 -22
16 -28 16 -17 0 -45 38 -38 50 9 15 -30 57 -61 64 -13 4 -34 2 -45 -4 -17 -9
-23 -7 -40 14 -11 14 -29 28 -40 31 -32 10 -3 37 35 33 25 -2 30 -7 28 -25 -2
-16 2 -22 15 -22 10 0 36 -5 58 -11 70 -20 80 -18 78 13 -2 32 3 33 30 10 11
-10 17 -13 14 -6 -10 16 11 27 26 15 7 -6 30 -13 52 -17 70 -13 83 -35 33 -56
-43 -16 -43 -16 -28 -34 7 -8 23 -15 36 -15 13 0 24 -4 24 -9 0 -5 13 -4 29 2
29 11 41 31 41 73 0 17 7 21 36 22 46 2 74 11 74 23 0 5 -8 9 -19 9 -10 0 -44
11 -76 25 -92 41 -139 109 -102 147 14 14 31 68 22 68 -3 0 -19 -10 -35 -22
-41 -30 -50 -15 -10 18 26 22 31 32 26 56 -5 24 -1 30 32 47 30 15 47 17 92
10 88 -12 90 -12 97 21 3 17 10 33 14 36 5 3 7 10 4 15 -4 5 3 21 14 35 26 33
18 47 -25 42 -26 -3 -34 0 -34 12 0 13 -1 13 -10 0 -6 -9 -10 -11 -10 -3 0 7
-7 10 -15 7 -11 -5 -13 2 -9 33 5 35 4 36 -8 15 -10 -16 -17 -19 -25 -11 -9 9
-19 6 -42 -10 -19 -14 -31 -18 -31 -10 0 8 -6 6 -18 -4 -28 -26 -32 -21 -16
18 18 43 3 46 -26 5 -24 -34 -45 -40 -37 -10 6 24 -1 25 -25 3 -13 -12 -18
-13 -18 -3 0 9 -5 8 -19 -4 -17 -15 -19 -15 -25 -1 -3 9 -1 25 4 36 16 29 -3
23 -52 -17 l-43 -37 -3 33 c-2 20 3 39 14 51 9 11 14 22 11 26 -11 10 -79 -68
-73 -84 3 -8 1 -11 -4 -8 -6 3 -10 1 -10 -4 0 -6 -5 -11 -11 -11 -7 0 -9 10
-5 26 5 18 3 24 -5 19 -15 -10 -59 -110 -59 -135 0 -10 -4 -22 -10 -25 -14 -9
-50 13 -50 31 0 9 -6 14 -12 11 -7 -2 -12 -10 -10 -17 1 -7 -2 -17 -7 -24 -5
-6 -8 -53 -6 -105 4 -118 -6 -131 -95 -131 -73 0 -79 15 -10 24 59 8 66 19 69
106 1 30 3 64 4 75 2 17 -4 20 -38 20 -22 0 -50 -4 -62 -8 l-22 -8 4 253 c5
273 11 356 27 376 6 6 23 12 39 12 27 0 29 3 29 38 0 46 -29 63 -89 52 -22 -4
-43 -5 -46 -2 -3 3 -67 6 -143 8 -75 1 -218 6 -317 12 -211 13 -590 24 -597
17z m602 -297 c-1 -23 -27 -48 -49 -48 -12 0 -31 -5 -42 -10 -14 -8 -19 -7
-19 2 0 27 31 57 63 61 17 2 35 5 40 5 4 1 7 -4 7 -10z m460 2 c0 -5 -4 -10
-10 -10 -5 0 -10 5 -10 10 0 6 5 10 10 10 6 0 10 -4 10 -10z m-210 -100 c0
-33 -11 -38 -30 -15 -10 12 -10 18 0 30 19 23 30 18 30 -15z m203 -70 c3 -11
1 -22 -3 -25 -5 -3 -11 -36 -15 -73 -9 -93 -13 -106 -30 -92 -8 7 -19 9 -26 5
-8 -6 -9 6 -4 46 5 30 8 71 8 91 -1 21 3 35 8 32 5 -3 9 2 9 11 0 9 4 14 9 10
5 -3 12 -1 16 5 10 16 22 12 28 -10z m-253 -31 c0 -5 -14 -9 -32 -9 -30 0 -31
0 -13 20 14 15 21 17 32 9 7 -6 13 -15 13 -20z m605 -199 c-4 -12 -9 -19 -12
-17 -3 3 -2 15 2 27 4 12 9 19 12 17 3 -3 2 -15 -2 -27z m-414 -65 c-1 -15
-24 -12 -29 3 -3 9 2 13 12 10 10 -1 17 -7 17 -13z m337 -30 c-3 -3 -9 2 -12
12 -6 14 -5 15 5 6 7 -7 10 -15 7 -18z m-205 -25 c3 -11 2 -20 -1 -20 -15 0
-27 16 -30 39 -2 19 0 21 12 12 8 -6 16 -21 19 -31z m414 24 c-3 -3 -12 -4
-19 -1 -8 3 -5 6 6 6 11 1 17 -2 13 -5z m-560 -10 c-3 -3 -12 -4 -19 -1 -8 3
-5 6 6 6 11 1 17 -2 13 -5z m694 -37 c-8 -8 -11 -7 -11 4 0 20 13 34 18 19 3
-7 -1 -17 -7 -23z m-607 0 c-24 -13 -34 -27 -34 -52 0 -11 -7 -29 -16 -40 -13
-17 -16 -18 -24 -5 -17 27 -11 58 16 79 15 12 24 21 20 21 -4 0 -5 4 -2 9 3 4
17 6 32 3 24 -4 25 -6 8 -15z m262 -45 l-16 -37 5 40 c2 22 4 47 5 55 0 12 3
11 11 -3 8 -13 7 -28 -5 -55z m-396 -58 c0 -8 -8 -14 -17 -14 -24 0 -4 -17 25
-22 35 -5 31 -23 -6 -26 -27 -3 -35 1 -39 18 -5 19 -11 21 -40 15 -19 -3 -42
-9 -50 -12 -11 -4 -14 -2 -9 5 4 7 13 12 21 12 7 0 15 5 17 11 5 14 68 37 86
31 6 -2 12 -10 12 -18z m387 -16 c-3 -7 -5 -2 -5 12 0 14 2 19 5 13 2 -7 2
-19 0 -25z m-651 -19 c3 -6 2 -15 -4 -21 -6 -6 -15 -2 -26 13 -9 13 -16 27
-16 32 0 10 36 -9 46 -24z m114 1 c0 -5 -2 -10 -4 -10 -3 0 -8 5 -11 10 -3 6
-1 10 4 10 6 0 11 -4 11 -10z m-790 -45 c7 -14 25 -26 41 -30 16 -3 43 -8 59
-11 39 -7 44 -30 30 -134 -12 -91 -25 -123 -63 -158 -28 -26 -26 -26 -172 -12
-110 11 -110 11 -151 51 -34 34 -42 49 -47 91 -7 55 9 107 44 145 25 26 112
41 134 23 11 -9 18 -9 31 4 8 9 20 14 25 11 5 -4 9 0 9 7 0 17 20 38 35 38 7
0 18 -11 25 -25z m1340 11 c0 -8 -4 -18 -10 -21 -5 -3 -10 3 -10 14 0 12 5 21
10 21 6 0 10 -6 10 -14z m-46 -29 c16 -11 16 -17 4 -55 -14 -47 -47 -60 -49
-19 -2 23 -2 67 0 80 2 11 25 8 45 -6z m-314 -30 c0 -30 -6 -36 -31 -30 -18 5
-26 33 -12 46 16 17 43 6 43 -16z m329 -120 c-12 -10 -28 -16 -35 -13 -7 3
-29 8 -49 12 -54 10 -23 24 48 21 57 -2 58 -2 36 -20z m-1849 -37 c31 -19 -22
-36 -97 -31 -22 1 -22 2 -6 21 19 21 76 27 103 10z m1690 -5 c0 -19 18 -19 65
1 20 8 44 14 53 12 8 -2 -18 -16 -59 -31 -41 -15 -82 -32 -91 -37 -20 -11 -22
-7 -9 18 5 9 12 25 15 35 7 21 26 23 26 2z m-190 -33 c0 -15 -2 -15 -10 -2
-13 20 -13 33 0 25 6 -3 10 -14 10 -23z m721 -57 c-1 -15 -24 -12 -29 3 -3 9
2 13 12 10 10 -1 17 -7 17 -13z m-725 -15 c25 0 15 -25 -30 -74 -39 -41 -46
-45 -54 -30 -7 13 -5 25 6 43 16 24 16 24 -13 17 -34 -9 -34 -9 -58 -7 -13 1
-17 8 -15 24 3 19 10 23 63 28 33 3 66 4 73 2 8 -2 20 -3 28 -3z m699 -20 c3
-5 -1 -10 -9 -10 -8 0 -18 5 -21 10 -3 6 1 10 9 10 8 0 18 -4 21 -10z m-1656
-87 c-31 -53 -34 -56 -48 -40 -9 12 -5 21 21 46 43 42 55 39 27 -6z m781 22
c0 -8 -4 -15 -10 -15 -5 0 -7 7 -4 15 4 8 8 15 10 15 2 0 4 -7 4 -15z m35 5
c3 -5 -1 -10 -9 -10 -9 0 -16 5 -16 10 0 6 4 10 9 10 6 0 13 -4 16 -10z m40
-129 c-5 -18 -14 -21 -61 -21 -42 0 -53 -3 -47 -12 4 -7 6 -26 4 -41 -2 -21 2
-30 16 -33 29 -8 52 -47 46 -77 -5 -27 -26 -36 -38 -17 -3 5 -22 10 -41 10
l-34 0 0 64 c0 35 3 84 6 109 l7 46 66 3 c75 3 86 -1 76 -31z m-1095 -21 c0
-5 7 -10 15 -10 8 0 15 -5 15 -11 0 -18 -45 -5 -48 14 -2 9 1 17 7 17 6 0 11
-4 11 -10z"/>
<path d="M8433 702 c-23 -3 -31 -26 -13 -37 13 -8 -6 -45 -24 -45 -23 0 -48
-37 -53 -81 -4 -30 -3 -40 5 -35 7 4 12 16 12 26 0 25 57 50 114 50 45 0 79
-25 89 -65 3 -15 5 -12 7 10 3 43 0 59 -14 70 -6 6 -21 24 -33 41 -20 27 -20
31 -5 40 13 9 9 12 -23 20 -22 5 -50 8 -62 6z m57 -102 c0 -5 -2 -10 -4 -10
-3 0 -8 5 -11 10 -3 6 -1 10 4 10 6 0 11 -4 11 -10z"/>
<path d="M8442 553 c-12 -2 -20 -9 -17 -14 8 -12 85 -12 85 1 0 6 -4 10 -9 10
-5 0 -15 2 -23 4 -7 2 -23 1 -36 -1z"/>
<path d="M7900 570 c0 -5 7 -10 16 -10 8 0 12 5 9 10 -3 6 -10 10 -16 10 -5 0
-9 -4 -9 -10z"/>
<path d="M9428 433 c7 -3 16 -2 19 1 4 3 -2 6 -13 5 -11 0 -14 -3 -6 -6z"/>
<path d="M8060 1749 c8 -8 27 -22 42 -31 23 -15 30 -16 51 -5 l25 13 -27 11
c-14 7 -44 15 -66 19 -34 6 -38 5 -25 -7z"/>
<path d="M8231 1687 c20 -18 42 -42 48 -54 8 -17 21 -23 43 -23 27 0 29 2 17
16 -7 8 -30 24 -51 35 -21 11 -38 26 -38 33 0 8 -12 16 -27 19 -28 5 -28 5 8
-26z"/>
<path d="M7940 1665 c7 -8 17 -15 22 -15 6 0 5 7 -2 15 -7 8 -17 15 -22 15 -6
0 -5 -7 2 -15z"/>
<path d="M1756 1645 c-9 -9 -16 -29 -16 -45 0 -61 72 -82 98 -27 27 57 -39
115 -82 72z m62 -7 c7 -7 12 -24 12 -38 0 -51 -52 -69 -72 -25 -22 49 25 98
60 63z"/>
<path d="M2083 1600 c0 -36 2 -50 4 -32 2 17 2 47 0 65 -2 17 -4 3 -4 -33z"/>
<path d="M2376 1649 c3 -5 11 -9 19 -9 8 0 16 4 19 9 3 5 -5 9 -19 9 -14 0
-22 -4 -19 -9z"/>
<path d="M2970 1600 c0 -33 4 -60 10 -60 6 0 10 10 10 23 l1 22 18 -22 c27
-32 34 -29 17 6 -14 26 -14 30 0 41 8 7 12 15 9 18 -3 3 -14 -3 -25 -13 -20
-18 -20 -17 -20 13 0 18 -4 32 -10 32 -6 0 -10 -27 -10 -60z"/>
<path d="M3140 1600 c0 -33 4 -60 10 -60 6 0 10 27 10 60 0 33 -4 60 -10 60
-6 0 -10 -27 -10 -60z"/>
<path d="M3690 1600 c0 -66 17 -83 22 -22 4 52 31 50 39 -3 l7 -40 -2 45 c-1
39 -4 45 -23 48 -13 2 -23 10 -23 18 0 8 -4 14 -10 14 -6 0 -10 -27 -10 -60z"/>
<path d="M3823 1600 c0 -36 2 -50 4 -32 2 17 2 47 0 65 -2 17 -4 3 -4 -33z"/>
<path d="M3890 1600 c0 -33 4 -60 10 -60 6 0 10 27 10 60 0 33 -4 60 -10 60
-6 0 -10 -27 -10 -60z"/>
<path d="M7990 1630 c8 -5 22 -10 30 -10 13 0 13 1 0 10 -8 5 -22 10 -30 10
-13 0 -13 -1 0 -10z"/>
<path d="M1858 1570 c-2 -37 1 -59 7 -57 13 5 19 117 6 117 -5 0 -11 -27 -13
-60z"/>
<path d="M1940 1598 c0 -45 11 -59 43 -56 25 2 27 5 26 48 -1 25 -3 36 -6 25
-2 -11 -6 -30 -9 -42 -8 -41 -34 -28 -34 17 0 22 -4 40 -10 40 -5 0 -10 -15
-10 -32z"/>
<path d="M2112 1588 c3 -40 5 -43 36 -46 32 -3 32 -3 32 42 0 55 -17 62 -22 9
-4 -52 -28 -56 -28 -4 0 23 -5 41 -11 41 -6 0 -9 -17 -7 -42z"/>
<path d="M2218 1622 l23 -7 -26 -34 c-14 -19 -25 -36 -25 -38 0 -2 19 -2 43
-1 36 1 38 2 9 5 l-32 4 25 33 c32 42 32 46 -7 45 -28 -1 -29 -2 -10 -7z"/>
<path d="M2280 1585 c0 -25 5 -45 10 -45 6 0 10 20 10 45 0 25 -4 45 -10 45
-5 0 -10 -20 -10 -45z"/>
<path d="M2364 1616 c-3 -8 -4 -27 -2 -43 2 -21 9 -29 27 -31 13 -2 28 1 34 7
7 7 1 10 -19 8 -26 -2 -29 1 -29 28 0 27 3 30 28 28 15 -1 25 2 22 8 -9 14
-55 11 -61 -5z"/>
<path d="M2444 1616 c-3 -8 -4 -27 -2 -43 2 -24 8 -28 32 -28 17 0 31 6 34 15
5 13 3 13 -11 1 -18 -14 -47 -9 -47 9 0 5 14 10 30 10 23 0 30 5 30 19 0 30
-56 44 -66 17z m50 -11 c4 -11 -1 -15 -19 -15 -18 0 -23 4 -19 15 4 8 12 15
19 15 7 0 15 -7 19 -15z"/>
<path d="M2531 1583 c1 -27 3 -39 6 -28 2 11 6 30 9 43 7 35 32 26 45 -18 15
-49 28 -47 46 5 16 48 8 60 -10 15 l-14 -32 -11 31 c-9 26 -16 31 -41 31 -30
0 -31 -1 -30 -47z"/>
<path d="M2672 1618 c-7 -7 -12 -21 -12 -33 0 -46 53 -62 71 -21 21 45 -26 87
-59 54z m46 -27 c5 -34 -16 -51 -33 -27 -10 14 -11 24 -4 38 13 24 33 18 37
-11z"/>
<path d="M2750 1586 c0 -25 5 -46 10 -46 6 0 10 18 10 40 0 29 4 40 15 40 11
0 15 -11 15 -40 0 -22 5 -40 11 -40 6 0 9 17 7 43 -3 39 -5 42 -35 45 -33 3
-33 3 -33 -42z"/>
<path d="M2847 1624 c-4 -4 -7 -12 -7 -18 0 -6 5 -5 12 2 14 14 38 16 38 2 0
-5 -11 -13 -26 -16 -18 -5 -24 -12 -22 -28 2 -16 11 -22 36 -24 l33 -3 -3 43
c-3 38 -6 43 -28 46 -14 2 -29 0 -33 -4z m35 -66 c-11 -11 -32 -3 -32 12 0 12
34 18 39 7 2 -5 -1 -13 -7 -19z"/>
<path d="M3060 1615 c-7 -9 -8 -15 -2 -15 6 0 12 5 14 12 3 7 12 9 24 4 17 -7
15 -9 -14 -22 -46 -19 -41 -48 9 -50 l35 -2 -5 42 c-5 32 -11 42 -27 44 -11 2
-27 -4 -34 -13z m50 -32 c-1 -21 -19 -35 -36 -29 -18 7 -18 8 0 22 22 15 36
18 36 7z"/>
<path d="M3183 1585 c0 -27 2 -38 4 -22 2 15 2 37 0 50 -2 12 -4 0 -4 -28z"/>
<path d="M3210 1586 c0 -55 17 -62 22 -8 4 52 31 50 39 -3 l7 -40 -2 45 c-1
43 -2 45 -33 48 -33 3 -33 3 -33 -42z"/>
<path d="M3310 1615 c-7 -9 -8 -15 -2 -15 6 0 12 5 14 12 3 7 12 9 24 4 17 -7
15 -9 -14 -22 -46 -19 -41 -48 9 -50 l35 -2 -5 42 c-5 32 -11 42 -27 44 -11 2
-27 -4 -34 -13z m50 -32 c-1 -21 -19 -35 -36 -29 -18 7 -18 8 0 22 22 15 36
18 36 7z"/>
<path d="M3430 1570 c0 -33 4 -60 10 -60 6 0 10 6 10 14 0 8 10 16 22 18 29 4
47 50 28 72 -7 9 -25 16 -41 16 -29 0 -29 -1 -29 -60z m55 14 c0 -19 -5 -29
-15 -29 -16 0 -25 28 -16 51 10 25 31 10 31 -22z"/>
<path d="M3530 1616 c-28 -35 11 -93 48 -70 35 22 22 84 -18 84 -10 0 -23 -7
-30 -14z m45 -32 c0 -19 -5 -29 -15 -29 -16 0 -25 28 -16 51 10 25 31 10 31
-22z"/>
<path d="M3622 1618 c-27 -27 -7 -78 29 -78 10 0 21 5 24 10 4 7 -2 9 -18 5
-19 -5 -26 -2 -29 12 -8 37 3 55 29 48 16 -4 22 -2 18 5 -8 14 -38 13 -53 -2z"/>
<path d="M3780 1585 c0 -25 5 -45 10 -45 6 0 10 20 10 45 0 25 -4 45 -10 45
-5 0 -10 -20 -10 -45z"/>
<path d="M3850 1585 c0 -25 5 -45 10 -45 6 0 10 20 10 45 0 25 -4 45 -10 45
-5 0 -10 -20 -10 -45z"/>
<path d="M3930 1615 c-8 -9 -8 -15 -2 -15 6 0 12 5 14 12 3 7 12 9 24 4 17 -7
15 -9 -14 -22 -47 -19 -41 -48 10 -50 36 -2 37 -1 32 30 -3 17 -7 37 -10 44
-5 17 -39 15 -54 -3z m46 -41 c-3 -9 -6 -18 -6 -20 0 -2 -7 -4 -15 -4 -18 0
-20 26 -2 33 23 10 29 7 23 -9z"/>
<path d="M4017 1623 c-14 -14 -6 -34 18 -43 34 -13 33 -34 -1 -26 -17 5 -23 3
-19 -4 10 -16 52 -12 59 6 9 23 8 24 -19 34 -30 11 -34 35 -5 27 11 -3 18 -1
14 4 -6 10 -38 12 -47 2z"/>
<path d="M4088 1570 c-2 -37 1 -59 7 -57 13 5 19 117 6 117 -5 0 -11 -27 -13
-60z"/>
<path d="M4137 1624 c-4 -4 -7 -12 -7 -18 0 -6 5 -5 12 2 14 14 38 16 38 2 0
-5 -11 -13 -26 -16 -18 -5 -24 -12 -22 -28 2 -16 11 -22 36 -24 l33 -3 -3 43
c-3 38 -6 43 -28 46 -14 2 -29 0 -33 -4z m35 -66 c-11 -11 -32 -3 -32 12 0 12
34 18 39 7 2 -5 -1 -13 -7 -19z"/>
<path d="M9336 1613 c-13 -13 -5 -40 17 -61 13 -12 26 -22 30 -22 14 0 7 31
-8 36 -8 4 -15 14 -15 24 0 20 -13 33 -24 23z"/>
<path d="M8365 1600 c3 -5 13 -10 21 -10 8 0 12 5 9 10 -3 6 -13 10 -21 10 -8
0 -12 -4 -9 -10z"/>
<path d="M9411 1543 c7 -12 15 -20 18 -17 3 2 -3 12 -13 22 -17 16 -18 16 -5
-5z"/>
<path d="M1596 1499 c3 -5 11 -9 19 -9 8 0 16 4 19 9 3 5 -5 9 -19 9 -14 0
-22 -4 -19 -9z"/>
<path d="M8370 1500 c0 -5 7 -10 16 -10 8 0 12 5 9 10 -3 6 -10 10 -16 10 -5
0 -9 -4 -9 -10z"/>
<path d="M1580 1464 c-8 -8 -13 -28 -13 -44 0 -16 5 -36 13 -44 15 -19 51 -21
68 -4 21 21 13 32 -9 12 -26 -24 -53 -9 -57 33 -4 39 21 62 49 45 26 -16 34
-15 19 3 -16 20 -54 19 -70 -1z"/>
<path d="M2020 1473 c0 -5 5 -15 10 -23 8 -12 10 -11 10 8 0 12 -4 22 -10 22
-5 0 -10 -3 -10 -7z"/>
<path d="M2296 1469 c3 -5 11 -9 19 -9 8 0 16 4 19 9 3 5 -5 9 -19 9 -14 0
-22 -4 -19 -9z"/>
<path d="M2583 1420 c0 -36 2 -50 4 -32 2 17 2 47 0 65 -2 17 -4 3 -4 -33z"/>
<path d="M3012 1429 c-2 -44 2 -58 14 -63 50 -19 74 5 74 73 0 60 -18 50 -22
-11 -3 -49 -5 -53 -28 -53 -23 0 -25 5 -31 55 l-6 55 -1 -56z"/>
<path d="M3123 1420 c0 -36 2 -55 4 -42 5 27 14 28 31 2 7 -11 17 -20 23 -20
6 0 1 13 -10 28 -19 27 -19 30 -3 45 9 10 11 17 5 17 -6 0 -17 -7 -24 -17 -13
-15 -15 -13 -20 18 -5 24 -6 16 -6 -31z"/>
<path d="M3816 1469 c3 -5 11 -9 19 -9 8 0 16 4 19 9 3 5 -5 9 -19 9 -14 0
-22 -4 -19 -9z"/>
<path d="M4060 1420 c0 -33 4 -60 10 -60 6 0 10 27 10 60 0 33 -4 60 -10 60
-6 0 -10 -27 -10 -60z"/>
<path d="M8498 1463 c6 -2 12 -11 12 -19 0 -8 7 -14 15 -14 8 0 17 0 20 0 3 0
4 3 3 8 -2 4 -6 6 -10 5 -5 -2 -8 4 -8 12 0 9 -9 15 -22 14 -13 0 -17 -3 -10
-6z"/>
<path d="M1692 1438 c-7 -7 -12 -21 -12 -33 0 -42 49 -62 70 -27 10 16 10 16
20 0 6 -10 20 -18 30 -18 11 0 20 -5 20 -11 0 -7 -10 -9 -25 -7 -14 3 -25 1
-25 -3 0 -13 44 -11 58 3 7 7 12 34 12 60 0 46 -1 48 -30 48 -17 0 -33 -7 -40
-17 -10 -17 -10 -17 -20 0 -13 20 -41 22 -58 5z m46 -27 c5 -34 -16 -51 -33
-27 -10 14 -11 24 -4 38 13 24 33 18 37 -11z m77 -7 c0 -19 -5 -29 -15 -29
-16 0 -25 28 -16 51 10 25 31 10 31 -22z"/>
<path d="M1867 1444 c-11 -11 -8 -72 4 -79 5 -4 21 -4 35 -1 22 6 25 11 22 44
-3 31 -7 37 -28 40 -14 2 -29 0 -33 -4z m48 -23 c8 -26 -5 -53 -24 -49 -29 6
-27 68 3 68 8 0 17 -8 21 -19z"/>
<path d="M1951 1436 c-12 -15 -2 -27 32 -39 28 -10 9 -30 -22 -22 -19 5 -23 4
-15 -5 17 -17 58 -8 62 12 2 12 -6 21 -22 28 -35 13 -34 34 0 26 17 -5 23 -3
19 4 -9 14 -40 12 -54 -4z"/>
<path d="M2100 1406 c0 -55 17 -62 22 -8 4 52 31 50 39 -3 l7 -40 -2 45 c-1
43 -2 45 -33 48 -33 3 -33 3 -33 -42z"/>
<path d="M2200 1435 c-7 -9 -8 -15 -2 -15 6 0 12 5 14 12 3 7 12 9 24 4 17 -7
15 -9 -14 -22 -46 -19 -41 -48 9 -50 l35 -2 -5 42 c-5 32 -11 42 -27 44 -11 2
-27 -4 -34 -13z m50 -32 c-1 -21 -19 -35 -36 -29 -18 7 -18 8 0 22 22 15 36
18 36 7z"/>
<path d="M2287 1443 c-14 -14 -6 -34 18 -43 34 -13 33 -34 -1 -26 -17 5 -23 3
-19 -4 10 -16 52 -12 59 6 9 23 8 24 -19 34 -30 11 -34 35 -5 27 11 -3 18 -1
14 4 -6 10 -38 12 -47 2z"/>
<path d="M2370 1435 c-7 -9 -8 -15 -2 -15 6 0 12 5 14 12 3 7 12 9 24 4 17 -7
15 -9 -14 -22 -46 -19 -41 -48 9 -50 l35 -2 -5 42 c-5 32 -11 42 -27 44 -11 2
-27 -4 -34 -13z m50 -32 c-1 -21 -19 -35 -36 -29 -18 7 -18 8 0 22 22 15 36
18 36 7z"/>
<path d="M2497 1443 c-15 -14 -6 -33 18 -39 14 -3 25 -13 25 -21 0 -12 -7 -14
-27 -8 -21 5 -25 4 -17 -5 17 -17 58 -8 62 12 2 12 -6 21 -22 28 -31 11 -35
35 -6 27 11 -3 20 -1 20 4 0 10 -43 12 -53 2z"/>
<path d="M2617 1444 c-4 -4 -7 -12 -7 -18 0 -6 5 -5 12 2 14 14 38 16 38 2 0
-5 -11 -13 -26 -16 -18 -5 -24 -12 -22 -28 2 -16 11 -22 36 -24 l33 -3 -3 43
c-3 38 -6 43 -28 46 -14 2 -29 0 -33 -4z m35 -66 c-11 -11 -32 -3 -32 12 0 12
34 18 39 7 2 -5 -1 -13 -7 -19z"/>
<path d="M2707 1405 c8 -25 19 -45 23 -45 4 0 15 20 23 45 9 25 12 45 7 45 -4
0 -11 -11 -14 -25 -4 -14 -10 -25 -15 -25 -5 0 -12 11 -15 25 -4 14 -11 25
-16 25 -5 0 -2 -20 7 -45z"/>
<path d="M2780 1406 c0 -25 5 -46 10 -46 6 0 10 18 10 40 0 29 4 40 15 40 11
0 15 -11 15 -40 0 -22 5 -40 11 -40 6 0 9 17 7 43 -3 39 -5 42 -35 45 -33 3
-33 3 -33 -42z"/>
<path d="M2877 1444 c-4 -4 -7 -12 -7 -18 0 -6 5 -5 12 2 14 14 38 16 38 3 0
-5 -10 -13 -22 -17 -50 -15 -43 -54 9 -54 34 0 34 0 31 43 -3 37 -6 42 -28 45
-14 2 -29 0 -33 -4z m40 -59 c-4 -8 -13 -15 -22 -15 -21 0 -19 28 3 32 22 5
26 2 19 -17z"/>
<path d="M3201 1403 l1 -48 8 39 c4 21 13 42 21 47 11 6 8 9 -8 9 -21 0 -23
-5 -22 -47z"/>
<path d="M3257 1444 c-4 -4 -7 -12 -7 -18 0 -6 5 -5 12 2 14 14 38 16 38 2 0
-5 -11 -13 -26 -16 -18 -5 -24 -12 -22 -28 2 -16 11 -22 36 -24 l33 -3 -3 43
c-3 38 -6 43 -28 46 -14 2 -29 0 -33 -4z m35 -66 c-11 -11 -32 -3 -32 12 0 12
34 18 39 7 2 -5 -1 -13 -7 -19z"/>
<path d="M3340 1396 c0 -34 -5 -56 -12 -59 -8 -4 -7 -6 3 -6 9 -1 20 6 23 15
10 26 7 104 -4 104 -5 0 -10 -24 -10 -54z"/>
<path d="M3383 1405 c0 -27 2 -38 4 -22 2 15 2 37 0 50 -2 12 -4 0 -4 -28z"/>
<path d="M3410 1406 c0 -25 5 -46 10 -46 6 0 10 18 10 40 0 29 4 40 15 40 11
0 15 -11 15 -40 0 -22 5 -40 11 -40 6 0 9 17 7 43 -3 39 -5 42 -35 45 -33 3
-33 3 -33 -42z"/>
<path d="M3507 1444 c-4 -4 -7 -12 -7 -18 0 -6 5 -5 12 2 14 14 38 16 38 2 0
-5 -11 -13 -26 -16 -18 -5 -24 -12 -22 -28 2 -16 11 -22 36 -24 l33 -3 -3 43
c-3 38 -6 43 -28 46 -14 2 -29 0 -33 -4z m35 -66 c-11 -11 -32 -3 -32 12 0 12
34 18 39 7 2 -5 -1 -13 -7 -19z"/>
<path d="M3648 1443 c28 -5 28 -7 -4 -49 l-26 -34 43 1 c30 2 35 3 17 6 -16 2
-28 7 -28 9 0 3 12 21 26 40 l26 34 -38 -1 c-23 -1 -30 -3 -16 -6z"/>
<path d="M3720 1435 c-7 -9 -8 -15 -2 -15 6 0 12 5 14 12 3 7 12 9 24 4 17 -7
15 -9 -14 -22 -23 -9 -32 -19 -30 -31 3 -15 15 -18 83 -19 44 -1 68 1 53 3
-16 2 -28 7 -28 9 0 3 12 21 26 40 l26 34 -38 -1 c-23 -1 -30 -3 -16 -6 27 -5
27 -7 0 -43 -29 -39 -36 -38 -40 8 -2 29 -8 38 -24 40 -11 2 -27 -4 -34 -13z
m50 -32 c-1 -21 -19 -35 -36 -29 -18 7 -18 8 0 22 22 15 36 18 36 7z"/>
<path d="M3880 1418 c0 -45 11 -59 43 -56 25 2 27 5 26 48 -1 25 -3 36 -6 25
-2 -11 -6 -30 -9 -42 -8 -41 -34 -28 -34 17 0 22 -4 40 -10 40 -5 0 -10 -15
-10 -32z"/>
<path d="M3970 1405 c0 -25 5 -45 10 -45 6 0 10 18 10 39 0 22 5 42 13 44 6 3
2 6 -10 6 -21 1 -23 -4 -23 -44z"/>
<path d="M4033 1405 c0 -27 2 -38 4 -22 2 15 2 37 0 50 -2 12 -4 0 -4 -28z"/>
<path d="M4100 1435 c-8 -9 -8 -15 -2 -15 6 0 12 5 14 12 3 7 12 9 24 4 17 -7
15 -9 -14 -22 -47 -19 -41 -48 10 -50 36 -2 37 -1 32 30 -3 17 -7 37 -10 44
-5 17 -39 15 -54 -3z m46 -41 c-3 -9 -6 -18 -6 -20 0 -2 -7 -4 -15 -4 -18 0
-20 26 -2 33 23 10 29 7 23 -9z"/>
<path d="M4187 1443 c-15 -14 -6 -33 18 -39 14 -3 25 -13 25 -21 0 -12 -7 -14
-27 -8 -21 5 -25 4 -17 -5 17 -17 58 -8 62 12 2 12 -6 21 -22 28 -31 11 -35
35 -6 27 11 -3 20 -1 20 4 0 10 -43 12 -53 2z"/>
<path d="M4258 1390 c-2 -37 1 -59 7 -57 13 5 19 117 6 117 -5 0 -11 -27 -13
-60z"/>
<path d="M4307 1444 c-4 -4 -7 -12 -7 -18 0 -6 5 -5 12 2 14 14 38 16 38 2 0
-5 -11 -13 -26 -16 -18 -5 -24 -12 -22 -28 2 -16 11 -22 36 -24 l33 -3 -3 43
c-3 38 -6 43 -28 46 -14 2 -29 0 -33 -4z m35 -66 c-11 -11 -32 -3 -32 12 0 12
34 18 39 7 2 -5 -1 -13 -7 -19z"/>
<path d="M9073 1333 c9 -2 23 -2 30 0 6 3 -1 5 -18 5 -16 0 -22 -2 -12 -5z"/>
<path d="M1776 1292 c-16 -26 -42 -112 -34 -112 5 0 12 9 15 20 4 13 14 20 30
20 16 0 27 -7 30 -20 3 -11 9 -20 14 -20 12 0 12 0 -12 64 -21 53 -32 66 -43
48z m18 -60 c-21 -5 -24 0 -17 27 l6 23 13 -23 c11 -20 10 -25 -2 -27z"/>
<path d="M2111 1288 c-1 -9 -7 -19 -13 -21 -10 -4 -10 -6 0 -6 7 -1 12 -16 12
-41 0 -32 4 -40 18 -39 10 0 12 3 5 6 -7 2 -13 20 -13 39 0 20 5 34 13 34 8 0
9 3 1 8 -6 4 -14 14 -17 22 -4 12 -6 12 -6 -2z"/>
<path d="M2430 1286 c7 -7 14 -6 21 1 9 9 7 12 -9 10 -14 -1 -18 -5 -12 -11z"/>
<path d="M3023 1240 c0 -36 2 -55 4 -42 5 27 14 28 31 2 7 -11 17 -20 23 -20
6 0 1 13 -10 28 -19 27 -19 30 -3 45 9 10 11 17 5 17 -6 0 -17 -7 -24 -17 -13
-15 -15 -13 -20 18 -5 24 -6 16 -6 -31z"/>
<path d="M3193 1240 c0 -36 2 -50 4 -32 2 17 2 47 0 65 -2 17 -4 3 -4 -33z"/>
<path d="M3660 1285 c0 -8 -8 -15 -18 -15 -24 0 -42 -19 -42 -45 0 -27 18 -45
47 -45 21 0 23 4 23 60 0 33 -2 60 -5 60 -3 0 -5 -7 -5 -15z m-5 -61 c0 -19
-5 -29 -15 -29 -16 0 -25 28 -16 51 10 25 31 10 31 -22z"/>
<path d="M1891 1221 l1 -46 8 38 c4 20 10 40 13 43 13 13 27 -9 28 -44 l2 -37
6 40 c4 26 11 40 21 40 10 0 17 -14 21 -40 l7 -40 -2 45 -1 45 -52 1 -53 1 1
-46z"/>
<path d="M2020 1225 c0 -25 5 -45 10 -45 6 0 10 20 10 45 0 25 -4 45 -10 45
-5 0 -10 -20 -10 -45z"/>
<path d="M2154 1230 c1 -42 3 -45 29 -46 26 -1 27 1 26 45 l-2 46 -6 -40 c-4
-26 -11 -40 -21 -40 -10 0 -17 14 -21 40 l-7 40 2 -45z"/>
<path d="M2228 1210 c-2 -37 1 -59 7 -57 13 5 19 117 6 117 -5 0 -11 -27 -13
-60z"/>
<path d="M2272 1228 c3 -40 5 -43 36 -46 32 -3 32 -3 32 42 0 55 -17 62 -22 9
-4 -52 -28 -56 -28 -4 0 23 -5 41 -11 41 -6 0 -9 -17 -7 -42z"/>
<path d="M2412 1258 c-27 -27 -7 -78 29 -78 10 0 20 4 23 8 3 5 -5 8 -17 8
-18 -1 -22 5 -22 29 0 25 4 30 23 28 13 -2 21 1 17 7 -8 14 -38 13 -53 -2z"/>
<path d="M2492 1258 c-7 -7 -12 -21 -12 -33 0 -41 45 -60 70 -30 14 17 0 21
-17 4 -6 -6 -16 -8 -22 -5 -21 13 -11 26 19 26 18 0 30 5 30 13 0 18 -21 37
-40 37 -9 0 -21 -5 -28 -12z m46 -16 c2 -7 -6 -12 -17 -12 -21 0 -27 11 -14
24 9 9 26 2 31 -12z"/>
<path d="M2570 1225 c0 -54 17 -60 22 -8 4 51 24 53 39 4 16 -52 33 -52 48 0
15 51 7 63 -12 18 l-13 -34 -12 33 c-9 27 -16 32 -41 32 -30 0 -31 -1 -31 -45z"/>
<path d="M2710 1256 c-28 -35 11 -93 48 -70 35 22 22 84 -18 84 -10 0 -23 -7
-30 -14z m45 -32 c0 -19 -5 -29 -15 -29 -16 0 -25 28 -16 51 10 25 31 10 31
-22z"/>
<path d="M2801 1221 l2 -46 6 40 c4 26 11 40 21 40 10 0 17 -14 21 -40 l7 -40
-2 45 c-1 42 -3 45 -28 46 -27 1 -28 -1 -27 -45z"/>
<path d="M2894 1230 c1 -42 3 -45 29 -46 26 -1 27 1 26 45 l-2 46 -6 -40 c-4
-26 -11 -40 -21 -40 -10 0 -17 14 -21 40 l-7 40 2 -45z"/>
<path d="M3107 1264 c-4 -4 -7 -12 -7 -18 0 -6 5 -5 12 2 14 14 38 16 38 3 0
-5 -10 -13 -22 -17 -50 -15 -43 -54 9 -54 34 0 34 0 31 43 -3 37 -6 42 -28 45
-14 2 -29 0 -33 -4z m40 -59 c-4 -8 -13 -15 -22 -15 -21 0 -19 28 3 32 22 5
26 2 19 -17z"/>
<path d="M3220 1225 c0 -25 5 -45 10 -45 6 0 10 20 10 45 0 25 -4 45 -10 45
-5 0 -10 -20 -10 -45z"/>
<path d="M3261 1220 c1 -25 3 -36 6 -25 2 11 6 30 9 43 8 40 34 27 34 -18 0
-22 5 -40 10 -40 12 0 13 60 2 78 -5 6 -20 11 -35 10 -25 -2 -27 -5 -26 -48z"/>
<path d="M3353 1230 c2 -43 3 -45 35 -48 32 -3 32 -3 32 42 0 25 -4 46 -10 46
-5 0 -10 -15 -10 -34 0 -33 -14 -55 -27 -42 -3 3 -10 23 -14 43 l-7 38 1 -45z"/>
<path d="M3480 1209 c0 -33 4 -59 10 -59 6 0 10 6 10 13 0 7 10 17 23 22 17 8
22 18 22 45 0 33 -2 35 -32 36 l-33 1 0 -58z m55 32 c7 -23 -3 -51 -20 -51 -7
0 -16 7 -19 16 -9 23 2 54 19 54 8 0 16 -8 20 -19z"/>
<path d="M3570 1225 c0 -25 5 -45 10 -45 6 0 10 20 10 45 0 25 -4 45 -10 45
-5 0 -10 -20 -10 -45z"/>
<path d="M3690 1225 c0 -25 5 -45 10 -45 6 0 10 20 10 45 0 25 -4 45 -10 45
-5 0 -10 -20 -10 -45z"/>
<path d="M3730 1216 c0 -34 -5 -56 -12 -59 -8 -4 -7 -6 3 -6 9 -1 20 6 23 15
10 26 7 104 -4 104 -5 0 -10 -24 -10 -54z"/>
<path d="M3760 1225 c0 -54 17 -61 22 -8 4 52 28 56 28 4 0 -51 18 -54 22 -4
4 52 28 56 28 4 0 -23 5 -41 11 -41 6 0 9 17 7 43 l-3 42 -57 3 -58 2 0 -45z"/>
<path d="M3899 1249 c-24 -46 29 -93 61 -54 8 9 8 15 2 15 -6 0 -12 -5 -14
-12 -5 -14 -38 -4 -38 12 0 5 14 10 30 10 31 0 39 17 18 38 -19 19 -46 14 -59
-9z m55 -4 c4 -11 -1 -15 -19 -15 -24 0 -32 10 -18 23 11 12 31 8 37 -8z"/>
<path d="M3991 1221 l1 -46 8 38 c4 20 10 40 13 43 13 13 27 -9 28 -44 l2 -37
6 40 c4 26 11 40 21 40 10 0 17 -14 21 -40 l7 -40 -2 45 -1 45 -52 1 -53 1 1
-46z"/>
<path d="M4127 1264 c-11 -11 -8 -72 4 -79 5 -4 21 -4 35 -1 22 6 25 11 22 44
-3 31 -7 37 -28 40 -14 2 -29 0 -33 -4z m48 -23 c8 -26 -5 -53 -24 -49 -29 6
-27 68 3 68 8 0 17 -8 21 -19z"/>
<path d="M8309 1244 c-71 -13 -117 -33 -138 -58 -20 -24 2 -20 57 9 57 30 95
31 162 5 45 -18 51 -18 57 -4 5 15 -22 41 -57 55 -8 3 -45 0 -81 -7z"/>
<path d="M9100 1233 c1 -19 51 -43 75 -37 31 8 33 30 3 38 -32 8 -78 7 -78 -1z"/>
<path d="M8550 1206 c0 -2 7 -6 15 -10 8 -3 15 -1 15 4 0 6 -7 10 -15 10 -8 0
-15 -2 -15 -4z"/>
<path d="M8128 1138 c-27 -49 -46 -97 -40 -102 15 -16 72 71 72 110 0 21 -18
17 -32 -8z"/>
<path d="M9050 1131 c0 -4 31 -13 69 -19 38 -7 76 -15 85 -18 31 -12 16 14
-18 30 -35 17 -136 22 -136 7z"/>
<path d="M1213 1060 c-12 -33 -18 -60 -13 -60 5 0 12 9 15 20 4 13 15 20 30
20 15 0 26 -7 30 -20 3 -11 11 -20 17 -20 6 0 7 7 3 18 -4 9 -14 36 -22 60 -8
23 -20 42 -26 42 -7 0 -22 -27 -34 -60z m47 3 c0 -7 -7 -13 -16 -13 -11 0 -14
5 -10 16 3 9 6 21 6 27 0 16 20 -14 20 -30z"/>
<path d="M1760 1106 c7 -7 14 -6 21 1 9 9 7 12 -9 10 -14 -1 -18 -5 -12 -11z"/>
<path d="M2030 1060 c0 -33 4 -60 10 -60 6 0 10 27 10 60 0 33 -4 60 -10 60
-6 0 -10 -27 -10 -60z"/>
<path d="M2460 1072 c0 -52 12 -72 45 -72 33 0 45 20 44 75 l-2 50 -6 -47 c-8
-53 -22 -74 -45 -65 -12 5 -16 20 -16 57 0 27 -4 50 -10 50 -5 0 -10 -22 -10
-48z"/>
<path d="M2570 1060 c0 -33 4 -60 10 -60 6 0 10 10 10 23 l1 22 18 -22 c27
-32 34 -29 17 6 -14 26 -14 30 0 41 8 7 12 15 9 18 -3 3 -14 -3 -25 -13 -20
-18 -20 -17 -20 13 0 18 -4 32 -10 32 -6 0 -10 -27 -10 -60z"/>
<path d="M3210 1060 c0 -66 17 -83 22 -22 4 52 31 50 39 -3 l7 -40 -2 45 c-1
39 -4 45 -23 48 -13 2 -23 10 -23 18 0 8 -4 14 -10 14 -6 0 -10 -27 -10 -60z"/>
<path d="M3602 1060 c1 -54 2 -58 7 -25 4 26 11 40 21 40 10 0 17 -14 21 -40
l7 -40 -2 45 c-1 38 -4 45 -21 45 -11 0 -23 9 -27 20 -3 11 -6 -9 -6 -45z"/>
<path d="M4463 1060 c0 -36 2 -50 4 -32 2 17 2 47 0 65 -2 17 -4 3 -4 -33z"/>
<path d="M8532 1094 c10 -10 20 -15 24 -12 3 4 -5 12 -18 18 -22 12 -22 12 -6
-6z"/>
<path d="M9695 1100 c3 -5 8 -10 11 -10 2 0 4 5 4 10 0 6 -5 10 -11 10 -5 0
-7 -4 -4 -10z"/>
<path d="M10635 1100 c3 -5 8 -10 11 -10 2 0 4 5 4 10 0 6 -5 10 -11 10 -5 0
-7 -4 -4 -10z"/>
<path d="M11077 1083 c-3 -15 1 -32 9 -40 7 -8 16 -29 20 -47 3 -21 13 -36 23
-39 10 -2 31 -24 47 -48 16 -24 47 -53 69 -65 32 -16 44 -31 58 -70 10 -27 25
-56 33 -65 10 -11 14 -49 16 -137 l2 -122 -39 -40 c-35 -36 -44 -40 -85 -39
-25 0 -75 -2 -112 -6 -58 -7 -69 -5 -74 9 -3 9 -1 23 5 30 9 10 9 16 1 21 -6
4 -10 11 -8 17 4 11 134 57 165 58 12 0 25 5 28 11 12 18 -4 23 -32 9 -16 -7
-58 -14 -95 -15 -71 -1 -112 -22 -101 -51 9 -25 -6 -15 -56 36 -48 49 -83 132
-64 151 15 15 77 24 69 11 -11 -18 22 -15 55 5 17 10 32 27 34 38 10 50 10 61
-4 71 -8 6 -11 16 -7 23 6 9 11 9 22 0 8 -6 14 -15 14 -19 0 -4 13 -22 30 -39
35 -38 97 -54 111 -28 5 8 23 19 41 22 28 7 30 9 15 20 -20 14 -22 35 -4 36 6
0 -17 10 -53 22 -84 29 -103 40 -120 71 -7 14 -19 26 -26 26 -18 0 -26 33 -18
75 8 43 0 45 -22 3 -9 -17 -32 -47 -51 -67 -19 -20 -42 -49 -50 -64 -20 -40
-26 -28 -8 16 21 51 18 59 -6 14 -11 -22 -23 -37 -26 -34 -2 3 1 15 7 27 16
29 4 38 -20 14 -10 -10 -25 -23 -32 -29 -88 -68 -117 -98 -115 -120 3 -33 -15
-35 -30 -4 -9 18 -10 36 -3 60 7 23 7 35 0 37 -6 2 -1 15 10 29 11 14 20 31
20 37 0 7 11 27 25 46 14 19 25 42 25 51 0 10 12 31 26 48 21 26 23 32 10 37
-8 3 -21 2 -27 -2 -7 -4 -66 -9 -131 -10 -113 -3 -158 -13 -158 -35 0 -6 14
-37 30 -71 17 -33 30 -67 30 -75 0 -24 33 -10 41 17 4 14 7 44 8 67 1 44 15
64 25 37 3 -9 6 -44 6 -78 0 -36 5 -67 13 -75 10 -10 -1 -11 -53 -9 -55 3 -65
6 -62 21 2 14 -5 17 -48 17 -57 0 -65 -13 -19 -29 17 -6 33 -20 36 -31 4 -17
14 -20 57 -20 28 0 58 -5 66 -10 18 -12 11 -13 -61 -10 -32 1 -60 -3 -63 -9
-4 -6 -16 -11 -27 -11 -21 0 -25 -10 -9 -26 5 -5 6 -24 1 -45 l-8 -37 74 -4
c41 -3 79 -10 86 -17 14 -14 13 -14 -123 -15 l-105 -1 -1 -27 c-1 -16 4 -28
10 -28 7 0 7 -3 -1 -8 -20 -13 -33 -60 -24 -85 17 -42 35 -182 47 -370 l6 -97
50 0 c41 0 53 4 73 28 29 35 82 65 90 53 3 -6 -3 -15 -13 -20 -11 -6 -27 -22
-36 -36 l-16 -25 178 0 179 0 1 27 c0 16 7 51 15 78 15 52 36 67 63 44 8 -6
17 -9 20 -6 3 3 19 1 35 -3 55 -16 223 20 311 66 33 18 38 18 38 -1 0 -8 5
-15 10 -15 15 0 12 -17 -16 -77 -34 -75 -41 -113 -21 -113 18 0 30 27 16 35
-18 12 0 22 28 17 25 -5 27 -4 14 11 -7 9 -17 15 -21 12 -5 -3 -6 4 -3 15 3
11 12 20 19 20 8 0 14 5 14 10 0 6 12 15 26 20 19 8 31 6 49 -8 14 -9 23 -21
21 -27 -4 -11 -7 -11 -49 -1 -18 4 -26 3 -23 -3 4 -5 20 -12 36 -16 17 -4 30
-10 30 -15 0 -4 10 -6 23 -3 40 10 5 -15 -58 -41 l-60 -25 133 -1 132 0 0 37
0 36 -22 -20 c-39 -35 -51 -38 -43 -13 6 18 0 28 -26 51 l-34 29 45 0 c66 1
80 16 80 84 0 52 -2 56 -24 56 -13 0 -29 6 -35 14 -9 11 -7 15 12 20 22 5 24
10 21 67 -1 33 -5 63 -8 66 -11 11 -80 11 -114 1 -18 -5 -40 -7 -49 -4 -14 6
-14 8 1 24 19 22 21 33 4 30 -21 -5 -20 37 2 57 21 19 28 79 10 90 -5 3 -10
-1 -10 -9 0 -10 -9 -16 -22 -16 -16 0 -19 3 -11 11 9 9 9 17 0 33 -24 41 -63
62 -52 26 3 -11 2 -20 -2 -20 -19 0 -73 67 -76 95 -3 17 -8 43 -12 58 -6 22
-3 31 11 42 18 13 18 14 2 20 -9 4 -23 3 -30 -1 -10 -6 -10 -4 0 9 12 14 10
17 -15 23 -54 13 -105 45 -165 105 -56 55 -59 61 -42 73 17 13 17 14 -3 24
-18 10 -21 8 -26 -15z m201 -202 c11 -7 10 -9 -3 -14 -9 -4 -13 -3 -10 2 3 5
-3 12 -12 14 -13 3 -14 5 -3 6 8 0 21 -3 28 -8z m-268 -60 c0 -13 -31 -43 -38
-37 -3 3 3 15 13 26 20 22 25 24 25 11z m-90 -15 c0 -3 -4 -8 -10 -11 -5 -3
-10 -1 -10 4 0 6 5 11 10 11 6 0 10 -2 10 -4z m-170 -171 c0 -7 -6 -15 -12
-18 -7 -2 2 -7 20 -11 17 -4 32 -12 32 -17 0 -6 -5 -7 -11 -3 -8 5 -10 -1 -7
-20 3 -14 -1 -34 -8 -43 -20 -27 -17 -43 10 -43 27 0 56 -33 56 -62 0 -17 -2
-17 -22 -4 -33 21 -86 17 -105 -8 -10 -13 -13 -15 -10 -5 4 13 -3 18 -38 21
-24 3 -56 15 -72 27 -47 37 -106 73 -135 83 -25 9 -26 11 -12 25 14 14 17 14
29 -5 8 -11 35 -32 59 -46 36 -21 58 -26 110 -26 56 0 66 3 67 18 6 121 6 122
-24 122 -37 0 -31 23 9 30 38 8 64 1 64 -15z m52 -110 c-2 -14 -6 -25 -8 -25
-2 0 -4 11 -4 25 0 14 4 25 9 25 4 0 6 -11 3 -25z m736 -147 c7 -18 12 -34 13
-35 0 -2 7 -19 15 -39 17 -42 1 -37 -21 7 -12 22 -12 29 -3 29 7 0 2 7 -10 16
-12 8 -22 24 -22 35 0 29 14 23 28 -13z m-148 -2 c0 -16 -18 -31 -27 -22 -8 8
5 36 17 36 5 0 10 -6 10 -14z m-660 -21 c0 -8 -4 -15 -9 -15 -5 0 -11 7 -15
15 -3 9 0 15 9 15 8 0 15 -7 15 -15z m531 -58 c-13 -13 -26 -3 -16 12 3 6 11
8 17 5 6 -4 6 -10 -1 -17z m159 8 c0 -19 -12 -25 -27 -14 -19 16 -16 25 7 25
11 0 20 -5 20 -11z m26 -40 c-15 -40 -199 -80 -296 -65 -33 5 -31 6 20 13 30
4 69 7 87 7 33 0 83 41 83 67 0 19 13 16 40 -9 l23 -22 21 25 c21 25 34 15 22
-16z m-646 28 c0 -12 -33 -43 -45 -43 -12 0 -25 21 -25 41 0 5 16 9 35 9 19 0
35 -3 35 -7z m213 -11 c10 -10 13 -23 8 -31 -6 -10 -10 -9 -15 4 -4 11 -12 14
-26 10 -22 -7 -29 20 -7 28 20 9 23 8 40 -11z m92 -82 c-3 -5 -14 -10 -23 -10
-15 0 -15 2 -2 10 20 13 33 13 25 0z m541 -10 c8 0 14 -4 14 -10 0 -5 -20 -10
-45 -10 -26 0 -45 5 -45 11 0 7 9 9 21 6 13 -4 22 0 26 11 4 10 8 12 11 4 2
-7 10 -12 18 -12z m-916 1 c0 -5 -13 -14 -29 -21 -16 -6 -37 -20 -46 -29 -14
-16 -14 -20 -1 -31 18 -14 96 -4 96 13 0 8 4 7 9 -2 5 -8 16 -11 25 -8 20 8
33 -13 15 -24 -18 -11 -102 -11 -131 0 -13 5 -45 17 -71 26 -33 12 -45 21 -39
27 7 7 21 7 43 -1 18 -6 29 -8 25 -4 -4 4 17 20 46 35 62 32 58 30 58 19z
m785 -11 c3 -5 -1 -10 -10 -10 -9 0 -13 5 -10 10 3 6 8 10 10 10 2 0 7 -4 10
-10z m182 -6 c-3 -3 -12 -4 -19 -1 -8 3 -5 6 6 6 11 1 17 -2 13 -5z m-896 -32
c-7 -2 -18 1 -23 6 -8 8 -4 9 13 5 13 -4 18 -8 10 -11z m784 -52 c3 -6 -1 -7
-9 -4 -18 7 -21 14 -7 14 6 0 13 -4 16 -10z m-738 -6 c-3 -3 -12 -4 -19 -1 -8
3 -5 6 6 6 11 1 17 -2 13 -5z"/>
<path d="M11505 1100 c3 -5 8 -10 11 -10 2 0 4 5 4 10 0 6 -5 10 -11 10 -5 0
-7 -4 -4 -10z"/>
<path d="M9740 1084 c0 -8 5 -12 10 -9 6 3 10 10 10 16 0 5 -4 9 -10 9 -5 0
-10 -7 -10 -16z"/>
<path d="M10521 1084 c0 -11 3 -14 6 -6 3 7 2 16 -1 19 -3 4 -6 -2 -5 -13z"/>
<path d="M1340 1045 c0 -54 17 -61 22 -8 4 52 28 56 28 4 0 -51 18 -54 22 -4
4 52 28 56 28 4 0 -23 5 -41 11 -41 6 0 9 17 7 43 l-3 42 -57 3 -58 2 0 -45z"/>
<path d="M1480 1045 c0 -25 5 -45 10 -45 6 0 10 20 10 45 0 25 -4 45 -10 45
-5 0 -10 -20 -10 -45z"/>
<path d="M1560 1046 c0 -25 5 -46 10 -46 6 0 10 18 10 40 0 29 4 40 15 40 11
0 15 -11 15 -40 0 -22 5 -40 11 -40 6 0 9 17 7 43 -3 39 -5 42 -35 45 -33 3
-33 3 -33 -42z"/>
<path d="M1657 1084 c-4 -4 -7 -12 -7 -18 0 -6 5 -5 12 2 14 14 38 16 38 3 0
-5 -10 -13 -22 -17 -50 -15 -43 -54 9 -54 34 0 34 0 31 43 -3 37 -6 42 -28 45
-14 2 -29 0 -33 -4z m40 -59 c-4 -8 -13 -15 -22 -15 -21 0 -19 28 3 32 22 5
26 2 19 -17z"/>
<path d="M1741 1076 c-12 -15 -2 -27 32 -39 28 -10 9 -30 -22 -22 -19 5 -23 4
-15 -5 17 -17 58 -8 62 12 2 12 -6 21 -22 28 -35 13 -34 34 0 26 17 -5 23 -3
19 4 -9 14 -40 12 -54 -4z"/>
<path d="M1823 1050 c2 -43 3 -45 35 -48 32 -3 32 -3 32 42 0 25 -4 46 -10 46
-5 0 -10 -15 -10 -34 0 -33 -14 -55 -27 -42 -3 3 -10 23 -14 43 l-7 38 1 -45z"/>
<path d="M1957 1083 c-15 -14 -6 -34 19 -43 29 -12 22 -34 -9 -26 -14 3 -17 2
-10 -5 15 -15 47 -7 51 14 2 10 -6 21 -22 28 -34 16 -34 33 0 25 17 -5 23 -3
19 4 -7 11 -38 14 -48 3z"/>
<path d="M2070 1075 c-8 -9 -8 -15 -2 -15 6 0 12 5 14 12 3 7 12 9 24 4 17 -7
15 -9 -14 -22 -47 -19 -41 -48 10 -50 36 -2 37 -1 32 30 -3 17 -7 37 -10 44
-5 17 -39 15 -54 -3z m46 -41 c-3 -9 -6 -18 -6 -20 0 -2 -7 -4 -15 -4 -18 0
-20 26 -2 33 23 10 29 7 23 -9z"/>
<path d="M2150 1084 c0 -24 25 -84 35 -84 12 0 40 78 31 87 -3 3 -11 -10 -19
-28 l-13 -34 -12 33 c-10 28 -22 43 -22 26z"/>
<path d="M2241 1041 l2 -46 6 40 c4 26 11 40 21 40 10 0 17 -14 21 -40 l7 -40
-2 45 c-1 42 -3 45 -28 46 -27 1 -28 -1 -27 -45z"/>
<path d="M2334 1050 c1 -42 3 -45 29 -46 26 -1 27 1 26 45 l-2 46 -6 -40 c-4
-26 -11 -40 -21 -40 -10 0 -17 14 -21 40 l-7 40 2 -45z"/>
<path d="M2650 1045 c0 -25 5 -45 10 -45 6 0 10 16 10 35 0 22 6 38 18 44 14
9 13 10 -10 11 -26 0 -28 -3 -28 -45z"/>
<path d="M2710 1075 c-8 -9 -8 -15 -2 -15 6 0 12 5 14 12 3 7 12 9 24 4 17 -7
15 -9 -14 -22 -47 -19 -41 -48 10 -50 36 -2 37 -1 32 30 -3 17 -7 37 -10 44
-5 17 -39 15 -54 -3z m46 -41 c-3 -9 -6 -18 -6 -20 0 -2 -7 -4 -15 -4 -18 0
-20 26 -2 33 23 10 29 7 23 -9z"/>
<path d="M2788 1030 c-2 -37 1 -59 7 -57 13 5 19 117 6 117 -5 0 -11 -27 -13
-60z"/>
<path d="M2830 1045 c0 -25 5 -45 10 -45 6 0 10 20 10 45 0 25 -4 45 -10 45
-5 0 -10 -20 -10 -45z"/>
<path d="M2871 1041 l2 -46 6 40 c4 26 11 40 21 40 10 0 17 -14 21 -40 l7 -40
-2 45 c-1 42 -3 45 -28 46 -27 1 -28 -1 -27 -45z"/>
<path d="M2964 1050 c1 -42 3 -45 29 -46 26 -1 27 1 26 45 l-2 46 -6 -40 c-4
-26 -11 -40 -21 -40 -10 0 -17 14 -21 40 l-7 40 2 -45z"/>
<path d="M3142 1078 c-27 -27 -7 -78 29 -78 10 0 21 5 24 10 4 7 -2 9 -18 5
-19 -5 -26 -2 -29 12 -8 37 3 55 29 48 16 -4 22 -2 18 5 -8 14 -38 13 -53 -2z"/>
<path d="M3312 1078 c-16 -16 -15 -53 3 -68 18 -15 47 -10 53 10 4 13 3 13
-11 2 -9 -8 -21 -11 -27 -7 -20 12 -10 25 20 25 33 0 35 3 20 31 -12 21 -40
25 -58 7z m46 -16 c2 -7 -6 -12 -17 -12 -21 0 -27 11 -14 24 9 9 26 2 31 -12z"/>
<path d="M3390 1036 c0 -34 -5 -56 -12 -59 -8 -4 -7 -6 3 -6 9 -1 20 6 23 15
10 26 7 104 -4 104 -5 0 -10 -24 -10 -54z"/>
<path d="M3522 1078 c-27 -27 -7 -78 29 -78 10 0 20 4 23 8 3 5 -5 8 -17 8
-18 -1 -22 5 -22 29 0 25 4 30 23 28 13 -2 21 1 17 7 -8 14 -38 13 -53 -2z"/>
<path d="M3692 1078 c-7 -7 -12 -21 -12 -33 0 -41 45 -60 70 -30 14 17 0 21
-17 4 -6 -6 -16 -8 -22 -5 -21 13 -11 26 19 26 18 0 30 5 30 13 0 18 -21 37
-40 37 -9 0 -21 -5 -28 -12z m46 -16 c2 -7 -6 -12 -17 -12 -21 0 -27 11 -14
24 9 9 26 2 31 -12z"/>
<path d="M3768 1030 c-2 -37 1 -59 7 -57 13 5 19 117 6 117 -5 0 -11 -27 -13
-60z"/>
<path d="M3901 1043 l1 -48 8 39 c4 21 13 42 21 47 11 6 8 9 -8 9 -21 0 -23
-5 -22 -47z"/>
<path d="M3957 1084 c-11 -11 -8 -72 4 -79 5 -4 21 -4 35 -1 22 6 25 11 22 44
-3 31 -7 37 -28 40 -14 2 -29 0 -33 -4z m48 -23 c8 -26 -5 -53 -24 -49 -29 6
-27 68 3 68 8 0 17 -8 21 -19z"/>
<path d="M4058 1082 l23 -7 -26 -34 c-14 -19 -25 -36 -25 -38 0 -2 19 -2 43
-1 36 1 38 2 9 5 l-32 4 25 33 c32 42 32 46 -7 45 -28 -1 -29 -2 -10 -7z"/>
<path d="M4127 1045 c8 -25 19 -45 23 -45 4 0 15 20 23 45 9 25 12 45 7 45 -4
0 -11 -11 -14 -25 -4 -14 -10 -25 -15 -25 -5 0 -12 11 -15 25 -4 14 -11 25
-16 25 -5 0 -2 -20 7 -45z"/>
<path d="M4204 1076 c-3 -8 -4 -27 -2 -43 2 -24 8 -28 32 -28 17 0 31 6 34 15
5 13 3 13 -11 1 -18 -14 -47 -9 -47 9 0 5 14 10 30 10 23 0 30 5 30 19 0 30
-56 44 -66 17z m50 -11 c4 -11 -1 -15 -19 -15 -18 0 -23 4 -19 15 4 8 12 15
19 15 7 0 15 -7 19 -15z"/>
<path d="M4297 1083 c-15 -14 -6 -34 19 -43 29 -12 22 -34 -9 -26 -14 3 -17 2
-10 -5 15 -15 47 -7 51 14 2 10 -6 21 -22 28 -34 16 -34 33 0 25 17 -5 23 -3
19 4 -7 11 -38 14 -48 3z"/>
<path d="M4374 1076 c-3 -8 -4 -27 -2 -43 2 -24 8 -28 32 -28 17 0 31 6 34 15
5 13 3 13 -11 1 -18 -14 -47 -9 -47 9 0 5 14 10 30 10 23 0 30 5 30 19 0 30
-56 44 -66 17z m50 -11 c4 -11 -1 -15 -19 -15 -18 0 -23 4 -19 15 4 8 12 15
19 15 7 0 15 -7 19 -15z"/>
<path d="M4490 1045 c0 -25 5 -45 10 -45 6 0 10 20 10 45 0 25 -4 45 -10 45
-5 0 -10 -20 -10 -45z"/>
<path d="M4530 1044 c0 -24 5 -44 10 -44 6 0 10 18 10 41 0 53 23 48 31 -7 5
-34 6 -35 8 -9 3 68 36 71 44 5 3 -27 4 -25 3 10 l-1 45 -52 1 -53 1 0 -43z"/>
<path d="M4672 1078 c-7 -7 -12 -21 -12 -33 0 -46 53 -62 71 -21 21 45 -26 87
-59 54z m46 -27 c5 -34 -16 -51 -33 -27 -10 14 -11 24 -4 38 13 24 33 18 37
-11z"/>
<path d="M11516 1075 c-15 -8 -28 -10 -31 -4 -4 5 -24 9 -46 9 -22 0 -38 -4
-35 -9 3 -4 8 -39 10 -77 4 -59 9 -72 32 -92 14 -13 32 -21 39 -19 6 3 19 -5
29 -17 12 -17 35 -26 89 -35 39 -7 80 -14 90 -16 12 -2 17 3 17 20 0 13 -6 26
-12 28 -10 4 -10 6 0 6 17 1 17 141 0 141 -9 0 -9 3 0 12 7 7 12 23 12 36 0
22 -3 24 -35 18 -20 -4 -40 -4 -46 0 -21 13 -87 12 -113 -1z m154 -229 c0 -11
-19 -15 -25 -6 -3 5 1 10 9 10 9 0 16 -2 16 -4z"/>
<path d="M8240 1070 l-25 -8 27 -1 c15 -1 30 4 33 9 7 11 0 11 -35 0z"/>
<path d="M9086 1065 c7 -16 84 -22 84 -6 0 12 -26 21 -61 21 -21 0 -27 -4 -23
-15z"/>
<path d="M8586 1056 c3 -8 18 -16 33 -19 21 -4 32 -15 42 -39 l13 -33 4 30 c2
17 9 36 15 44 10 12 7 13 -16 7 -17 -4 -38 -1 -57 9 -36 19 -41 19 -34 1z"/>
<path d="M11128 1050 c10 -12 18 -16 21 -9 2 6 -3 15 -10 20 -24 15 -29 10
-11 -11z"/>
<path d="M7826 1043 c-3 -3 -6 -55 -6 -115 l0 -108 28 -1 c47 -2 136 2 155 7
10 3 14 10 10 17 -8 13 -9 19 -11 61 -2 28 -2 28 -27 12 -26 -17 -45 -21 -45
-8 0 5 16 15 35 22 27 11 35 19 33 34 -2 16 -14 22 -52 29 -27 4 -51 6 -53 3
-11 -11 -7 -69 5 -73 6 -3 12 3 12 12 0 9 5 13 11 10 7 -5 4 -13 -7 -26 -9
-10 -21 -16 -26 -13 -5 3 -14 -8 -21 -25 -20 -54 -26 -34 -21 63 5 85 -1 117
-20 99z"/>
<path d="M7908 1042 c-10 -2 -18 -10 -18 -18 0 -16 9 -18 29 -5 18 12 10 28
-11 23z"/>
<path d="M7974 1035 c-3 -8 -3 -19 1 -25 11 -18 25 -11 25 15 0 27 -17 34 -26
10z"/>
<path d="M8053 1038 c-6 -7 -13 -24 -16 -37 l-6 -25 27 27 c18 19 23 30 16 37
-8 8 -14 7 -21 -2z"/>
<path d="M3434 991 c0 -11 4 -17 8 -15 4 3 8 12 8 20 0 8 -4 14 -8 14 -4 0 -8
-9 -8 -19z"/>
<path d="M3814 991 c0 -11 4 -17 8 -15 4 3 8 12 8 20 0 8 -4 14 -8 14 -4 0 -8
-9 -8 -19z"/>
<path d="M8618 983 c7 -3 16 -2 19 1 4 3 -2 6 -13 5 -11 0 -14 -3 -6 -6z"/>
<path d="M8298 963 c6 -2 18 -2 25 0 6 3 1 5 -13 5 -14 0 -19 -2 -12 -5z"/>
<path d="M8040 942 c0 -5 7 -17 16 -28 14 -17 15 -17 10 -1 -3 10 -6 23 -6 28
0 5 -4 9 -10 9 -5 0 -10 -4 -10 -8z"/>
<path d="M1213 880 c-12 -33 -18 -60 -13 -60 5 0 12 9 15 20 4 13 15 20 30 20
15 0 26 -7 30 -20 3 -11 11 -20 17 -20 6 0 7 7 3 18 -4 9 -14 36 -22 60 -8 23
-20 42 -26 42 -7 0 -22 -27 -34 -60z m47 3 c0 -7 -7 -13 -16 -13 -11 0 -14 5
-10 16 3 9 6 21 6 27 0 16 20 -14 20 -30z"/>
<path d="M1760 926 c7 -7 14 -6 21 1 9 9 7 12 -9 10 -14 -1 -18 -5 -12 -11z"/>
<path d="M2030 880 c0 -33 4 -60 10 -60 6 0 10 27 10 60 0 33 -4 60 -10 60 -6
0 -10 -27 -10 -60z"/>
<path d="M2460 892 c0 -52 12 -72 45 -72 33 0 45 20 44 74 l-2 51 -6 -47 c-8
-53 -22 -74 -45 -65 -12 5 -16 20 -16 57 0 27 -4 50 -10 50 -5 0 -10 -22 -10
-48z"/>
<path d="M2570 880 c0 -33 4 -60 10 -60 6 0 10 10 10 23 l1 22 18 -22 c27 -32
34 -29 17 6 -14 26 -14 30 0 41 8 7 12 15 9 18 -3 3 -14 -3 -25 -13 -20 -18
-20 -17 -20 13 0 18 -4 32 -10 32 -6 0 -10 -27 -10 -60z"/>
<path d="M3210 880 c0 -66 17 -83 22 -22 4 52 31 50 39 -3 l7 -40 -2 45 c-1
39 -4 45 -23 48 -13 2 -23 10 -23 18 0 8 -4 14 -10 14 -6 0 -10 -27 -10 -60z"/>
<path d="M3602 880 c1 -54 2 -58 7 -25 4 26 11 40 21 40 10 0 17 -14 21 -40
l7 -40 -2 45 c-1 38 -4 45 -21 45 -11 0 -23 9 -27 20 -3 11 -6 -9 -6 -45z"/>
<path d="M4463 880 c0 -36 2 -50 4 -32 2 17 2 47 0 65 -2 17 -4 3 -4 -33z"/>
<path d="M1340 865 c0 -54 17 -61 22 -8 4 52 28 56 28 4 0 -51 18 -54 22 -4 4
52 28 56 28 4 0 -23 5 -41 11 -41 6 0 9 17 7 43 l-3 42 -57 3 -58 2 0 -45z"/>
<path d="M1480 865 c0 -25 5 -45 10 -45 6 0 10 20 10 45 0 25 -4 45 -10 45 -5
0 -10 -20 -10 -45z"/>
<path d="M1560 866 c0 -25 5 -46 10 -46 6 0 10 18 10 40 0 29 4 40 15 40 11 0
15 -11 15 -40 0 -22 5 -40 11 -40 6 0 9 17 7 43 -3 39 -5 42 -35 45 -33 3 -33
3 -33 -42z"/>
<path d="M1657 904 c-4 -4 -7 -12 -7 -18 0 -6 5 -5 12 2 14 14 38 16 38 3 0
-5 -10 -13 -22 -17 -50 -15 -43 -54 9 -54 34 0 34 0 31 43 -3 37 -6 42 -28 45
-14 2 -29 0 -33 -4z m40 -59 c-4 -8 -13 -15 -22 -15 -21 0 -19 28 3 32 22 5
26 2 19 -17z"/>
<path d="M1741 896 c-12 -15 -2 -27 32 -39 28 -10 9 -30 -22 -22 -19 5 -23 4
-15 -5 17 -17 58 -8 62 12 2 12 -6 21 -22 28 -35 13 -34 34 0 26 17 -5 23 -3
19 4 -9 14 -40 12 -54 -4z"/>
<path d="M1823 870 c2 -43 3 -45 35 -48 32 -3 32 -3 32 42 0 25 -4 46 -10 46
-5 0 -10 -15 -10 -34 0 -33 -14 -55 -27 -42 -3 3 -10 23 -14 43 l-7 38 1 -45z"/>
<path d="M1957 903 c-15 -14 -6 -34 19 -43 29 -12 22 -34 -9 -26 -14 3 -17 2
-10 -5 15 -15 47 -7 51 14 2 10 -6 21 -22 28 -34 16 -34 33 0 25 17 -5 23 -3
19 4 -7 11 -38 14 -48 3z"/>
<path d="M2070 895 c-8 -9 -8 -15 -2 -15 6 0 12 5 14 12 3 7 12 9 24 4 17 -7
15 -9 -14 -22 -47 -19 -41 -48 10 -50 36 -2 37 -1 32 30 -3 17 -7 37 -10 44
-5 17 -39 15 -54 -3z m46 -41 c-3 -9 -6 -18 -6 -20 0 -2 -7 -4 -15 -4 -18 0
-20 26 -2 33 23 10 29 7 23 -9z"/>
<path d="M2150 904 c0 -24 25 -84 35 -84 12 0 40 78 31 87 -3 3 -11 -10 -19
-28 l-13 -34 -12 33 c-10 28 -22 43 -22 26z"/>
<path d="M2241 861 l2 -46 6 40 c4 26 11 40 21 40 10 0 17 -14 21 -40 l7 -40
-2 45 c-1 42 -3 45 -28 46 -27 1 -28 -1 -27 -45z"/>
<path d="M2334 870 c1 -42 3 -45 29 -46 26 -1 27 1 26 45 l-2 46 -6 -40 c-4
-26 -11 -40 -21 -40 -10 0 -17 14 -21 40 l-7 40 2 -45z"/>
<path d="M2650 865 c0 -25 5 -45 10 -45 6 0 10 16 10 35 0 22 6 38 18 44 14 9
13 10 -10 11 -26 0 -28 -3 -28 -45z"/>
<path d="M2710 895 c-8 -9 -8 -15 -2 -15 6 0 12 5 14 12 3 7 12 9 24 4 17 -7
15 -9 -14 -22 -47 -19 -41 -48 10 -50 36 -2 37 -1 32 30 -3 17 -7 37 -10 44
-5 17 -39 15 -54 -3z m46 -41 c-3 -9 -6 -18 -6 -20 0 -2 -7 -4 -15 -4 -18 0
-20 26 -2 33 23 10 29 7 23 -9z"/>
<path d="M2788 850 c-2 -37 1 -59 7 -57 13 5 19 117 6 117 -5 0 -11 -27 -13
-60z"/>
<path d="M2830 865 c0 -25 5 -45 10 -45 6 0 10 20 10 45 0 25 -4 45 -10 45 -5
0 -10 -20 -10 -45z"/>
<path d="M2871 861 l2 -46 6 40 c4 26 11 40 21 40 10 0 17 -14 21 -40 l7 -40
-2 45 c-1 42 -3 45 -28 46 -27 1 -28 -1 -27 -45z"/>
<path d="M2964 870 c1 -42 3 -45 29 -46 26 -1 27 1 26 45 l-2 46 -6 -40 c-4
-26 -11 -40 -21 -40 -10 0 -17 14 -21 40 l-7 40 2 -45z"/>
<path d="M3142 898 c-27 -27 -7 -78 29 -78 10 0 21 5 24 10 4 7 -2 9 -18 5
-19 -5 -26 -2 -29 12 -8 37 3 55 29 48 16 -4 22 -2 18 5 -8 14 -38 13 -53 -2z"/>
<path d="M3312 898 c-16 -16 -15 -53 3 -68 18 -15 47 -10 53 10 4 13 3 13 -11
2 -9 -8 -21 -11 -27 -7 -20 12 -10 25 20 25 33 0 35 3 20 31 -12 21 -40 25
-58 7z m46 -16 c2 -7 -6 -12 -17 -12 -21 0 -27 11 -14 24 9 9 26 2 31 -12z"/>
<path d="M3390 856 c0 -34 -5 -56 -12 -59 -8 -4 -7 -6 3 -6 9 -1 20 6 23 15
10 26 7 104 -4 104 -5 0 -10 -24 -10 -54z"/>
<path d="M3522 898 c-27 -27 -7 -78 29 -78 10 0 20 4 23 8 3 5 -5 8 -17 8 -18
-1 -22 5 -22 29 0 25 4 30 23 28 13 -2 21 1 17 7 -8 14 -38 13 -53 -2z"/>
<path d="M3692 898 c-7 -7 -12 -21 -12 -33 0 -41 45 -60 70 -30 14 17 0 21
-17 4 -6 -6 -16 -8 -22 -5 -21 13 -11 26 19 26 18 0 30 5 30 13 0 18 -21 37
-40 37 -9 0 -21 -5 -28 -12z m46 -16 c2 -7 -6 -12 -17 -12 -21 0 -27 11 -14
24 9 9 26 2 31 -12z"/>
<path d="M3768 850 c-2 -37 1 -59 7 -57 13 5 19 117 6 117 -5 0 -11 -27 -13
-60z"/>
<path d="M3901 863 l1 -48 8 39 c4 21 13 42 21 47 11 6 8 9 -8 9 -21 0 -23 -5
-22 -47z"/>
<path d="M3957 904 c-11 -11 -8 -72 4 -79 5 -4 21 -4 35 -1 22 6 25 11 22 44
-3 31 -7 37 -28 40 -14 2 -29 0 -33 -4z m48 -23 c8 -26 -5 -53 -24 -49 -29 6
-27 68 3 68 8 0 17 -8 21 -19z"/>
<path d="M4058 902 l23 -7 -26 -34 c-14 -19 -25 -36 -25 -38 0 -2 19 -2 43 -1
36 1 38 2 9 5 l-32 4 25 33 c32 42 32 46 -7 45 -28 -1 -29 -2 -10 -7z"/>
<path d="M4127 865 c8 -25 19 -45 23 -45 4 0 15 20 23 45 9 25 12 45 7 45 -4
0 -11 -11 -14 -25 -4 -14 -10 -25 -15 -25 -5 0 -12 11 -15 25 -4 14 -11 25
-16 25 -5 0 -2 -20 7 -45z"/>
<path d="M4204 896 c-3 -8 -4 -27 -2 -43 2 -24 8 -28 32 -28 17 0 31 6 34 15
5 13 3 13 -11 1 -18 -14 -47 -9 -47 9 0 5 14 10 30 10 23 0 30 5 30 19 0 30
-56 44 -66 17z m50 -11 c4 -11 -1 -15 -19 -15 -18 0 -23 4 -19 15 4 8 12 15
19 15 7 0 15 -7 19 -15z"/>
<path d="M4297 903 c-15 -14 -6 -34 19 -43 29 -12 22 -34 -9 -26 -14 3 -17 2
-10 -5 15 -15 47 -7 51 14 2 10 -6 21 -22 28 -34 16 -34 33 0 25 17 -5 23 -3
19 4 -7 11 -38 14 -48 3z"/>
<path d="M4374 896 c-3 -8 -4 -27 -2 -43 2 -24 8 -28 32 -28 17 0 31 6 34 15
5 13 3 13 -11 1 -18 -14 -47 -9 -47 9 0 5 14 10 30 10 23 0 30 5 30 19 0 30
-56 44 -66 17z m50 -11 c4 -11 -1 -15 -19 -15 -18 0 -23 4 -19 15 4 8 12 15
19 15 7 0 15 -7 19 -15z"/>
<path d="M4490 865 c0 -25 5 -45 10 -45 6 0 10 20 10 45 0 25 -4 45 -10 45 -5
0 -10 -20 -10 -45z"/>
<path d="M4530 864 c0 -24 5 -44 10 -44 6 0 10 18 10 41 0 53 23 48 31 -7 5
-34 6 -35 8 -9 3 68 36 71 44 5 3 -27 4 -25 3 10 l-1 45 -52 1 -53 1 0 -43z"/>
<path d="M4672 898 c-7 -7 -12 -21 -12 -33 0 -46 53 -62 71 -21 21 45 -26 87
-59 54z m46 -27 c5 -34 -16 -51 -33 -27 -10 14 -11 24 -4 38 13 24 33 18 37
-11z"/>
<path d="M3434 811 c0 -11 4 -17 8 -15 4 3 8 12 8 20 0 8 -4 14 -8 14 -4 0 -8
-9 -8 -19z"/>
<path d="M3814 811 c0 -11 4 -17 8 -15 4 3 8 12 8 20 0 8 -4 14 -8 14 -4 0 -8
-9 -8 -19z"/>
<path d="M10440 800 c0 -5 9 -10 21 -10 11 0 17 5 14 10 -3 6 -13 10 -21 10
-8 0 -14 -4 -14 -10z"/>
<path d="M11420 801 c0 -13 33 -38 60 -46 30 -9 26 -4 -23 29 -20 14 -37 22
-37 17z"/>
<path d="M11587 771 c-3 -13 3 -26 17 -36 21 -16 21 -16 -4 -9 -20 5 -23 4
-12 -7 21 -22 13 -32 -19 -25 l-31 6 21 -36 c18 -30 21 -49 18 -108 -2 -40 -6
-77 -10 -83 -8 -12 67 -22 116 -15 27 4 27 5 27 82 0 73 -1 78 -20 73 -11 -3
-20 0 -20 6 0 6 9 11 20 11 15 0 20 7 20 25 0 18 -4 23 -15 19 -11 -4 -15 0
-15 16 0 16 4 20 15 16 11 -4 15 1 15 19 0 16 -6 25 -15 25 -8 0 -15 5 -15 10
0 6 7 10 15 10 8 0 15 5 15 10 0 6 -26 10 -59 10 -50 0 -59 -3 -64 -19z"/>
<path d="M10318 763 c6 -2 18 -2 25 0 6 3 1 5 -13 5 -14 0 -19 -2 -12 -5z"/>
<path d="M11052 594 c-16 -12 -15 -14 6 -29 12 -9 22 -22 22 -29 0 -8 11 -13
28 -12 28 1 32 13 17 49 -5 12 -2 17 11 17 9 0 14 3 10 7 -12 13 -76 10 -94
-3z"/>
<path d="M10341 574 c0 -11 3 -14 6 -6 3 7 2 16 -1 19 -3 4 -6 -2 -5 -13z"/>
<path d="M11078 449 c-10 -5 -18 -15 -18 -21 0 -17 108 -4 128 15 15 16 13 17
-38 17 -30 0 -63 -5 -72 -11z"/>
<path d="M2582 195 c-7 -14 -12 -37 -12 -50 0 -30 20 -75 33 -75 5 0 4 7 -3
16 -8 8 -13 35 -13 59 0 24 5 51 13 59 7 9 8 16 3 16 -5 0 -15 -11 -21 -25z"/>
<path d="M2636 198 c-9 -12 -16 -29 -16 -38 0 -45 59 -77 88 -48 21 21 13 32
-9 12 -26 -24 -53 -9 -57 33 -4 39 21 62 49 45 26 -16 34 -15 19 3 -18 22 -57
18 -74 -7z"/>
<path d="M2743 160 c-1 -36 1 -56 4 -45 2 11 6 30 9 43 8 40 34 27 34 -18 0
-22 5 -40 10 -40 12 0 13 60 1 79 -5 8 -18 12 -29 9 -16 -4 -22 0 -25 16 -2
11 -4 -8 -4 -44z"/>
<path d="M3120 160 c0 -33 4 -60 10 -60 6 0 10 18 10 40 0 29 4 40 15 40 11 0
15 -11 15 -40 0 -22 5 -40 11 -40 6 0 9 17 7 43 -2 35 -7 43 -25 45 -13 2 -23
10 -23 18 0 8 -4 14 -10 14 -6 0 -10 -27 -10 -60z"/>
<path d="M3340 204 c8 -8 13 -35 13 -59 0 -24 -5 -51 -13 -59 -7 -9 -8 -16 -3
-16 13 0 33 45 33 75 0 30 -20 75 -33 75 -5 0 -4 -7 3 -16z"/>
<path d="M2829 169 c-24 -46 29 -93 61 -54 8 9 8 15 2 15 -6 0 -12 -5 -14 -12
-5 -14 -38 -4 -38 12 0 5 14 10 30 10 31 0 39 17 18 38 -19 19 -46 14 -59 -9z
m55 -4 c4 -11 -1 -15 -19 -15 -24 0 -32 10 -18 23 11 12 31 8 37 -8z"/>
<path d="M2908 130 c-2 -37 1 -59 7 -57 13 5 19 117 6 117 -5 0 -11 -27 -13
-60z"/>
<path d="M3044 176 c-3 -8 -4 -27 -2 -43 2 -21 9 -29 27 -31 13 -2 28 1 34 7
7 7 1 10 -19 8 -26 -2 -29 1 -29 28 0 27 3 30 28 28 15 -1 25 2 22 8 -9 14
-55 11 -61 -5z"/>
<path d="M3209 169 c-24 -46 29 -93 61 -54 8 9 8 15 2 15 -6 0 -12 -5 -14 -12
-5 -14 -38 -4 -38 12 0 5 14 10 30 10 31 0 39 17 18 38 -19 19 -46 14 -59 -9z
m55 -4 c4 -11 -1 -15 -19 -15 -24 0 -32 10 -18 23 11 12 31 8 37 -8z"/>
<path d="M3300 136 c0 -34 -5 -56 -12 -59 -8 -3 -6 -6 5 -6 14 -1 17 8 17 59
0 33 -2 60 -5 60 -3 0 -5 -24 -5 -54z"/>
<path d="M2954 91 c0 -11 4 -17 8 -15 4 3 8 12 8 20 0 8 -4 14 -8 14 -4 0 -8
-9 -8 -19z"/>
<path d="M11065 99 c-34 -8 -27 -11 28 -14 22 -1 36 2 34 8 -4 13 -24 15 -62
6z"/>
</g>
</svg>
